<svg xmlns="http://www.w3.org/2000/svg" xmlns:xlink="http://www.w3.org/1999/xlink" width="1920" zoomAndPan="magnify" viewBox="0 0 1440 809.999993" height="1080" preserveAspectRatio="xMidYMid meet" version="1.0"><path fill="#e8f7f7" d="M 1226.660156 475.378906 C 1227.03125 474.472656 1285.421875 479.980469 1286.546875 521.699219 C 1286.546875 521.699219 1334.074219 577.90625 1343.582031 582.429688 C 1353.085938 586.960938 1358.972656 595.789062 1357.839844 604.386719 C 1378.886719 634.488281 1360.328125 669.570312 1350.371094 671.152344 C 1340.414062 672.738281 1223.027344 668.699219 1205.53125 646.652344 C 1188.027344 624.605469 1226.660156 475.378906 1226.660156 475.378906 " fill-opacity="1" fill-rule="nonzero"/><path fill="#c83947" d="M 1181.085938 450.03125 L 1226.65625 472.210938 C 1226.65625 472.210938 1254.632812 522.738281 1248.527344 588.089844 C 1242.664062 653.222656 1264.820312 809.894531 1265.273438 818.5 C 1265.726562 827.097656 1042.128906 866.480469 1006.824219 814.425781 C 1001.390625 802.203125 1012.253906 784.546875 1012.253906 784.546875 C 1012.253906 784.546875 985.097656 670.023438 969.707031 638.335938 C 954.316406 606.652344 944.976562 487.65625 947.078125 484.855469 C 949.175781 482.054688 1009.085938 446.410156 1012.253906 445.957031 C 1015.425781 445.503906 1181.085938 450.03125 1181.085938 450.03125 " fill-opacity="1" fill-rule="nonzero"/><path fill="#a22f3b" d="M 1014.980469 475.417969 C 1014.925781 474.144531 1014.03125 473.660156 1013 473.472656 C 1013.160156 472.480469 1013.339844 471.488281 1013.472656 470.484375 C 1013.769531 468.253906 1010.632812 467.460938 1010.027344 469.691406 C 1009.691406 470.933594 1009.402344 472.1875 1009.113281 473.433594 C 1006.5625 473.527344 1004.023438 473.691406 1001.472656 473.851562 C 998.460938 474.039062 998.597656 478.722656 1001.621094 478.546875 C 1003.804688 478.417969 1005.992188 478.289062 1008.179688 478.121094 C 1008.171875 478.613281 1008.21875 479.109375 1008.386719 479.601562 C 1008.765625 480.734375 1010.285156 481.183594 1011.121094 480.230469 C 1011.769531 479.492188 1012.066406 478.644531 1012.265625 477.75 C 1013.65625 477.542969 1015.050781 477.039062 1014.980469 475.417969 " fill-opacity="1" fill-rule="nonzero"/><path fill="#a22f3b" d="M 1036.410156 461.054688 C 1035.347656 460.277344 1034.320312 460.140625 1033.179688 460.132812 C 1033.566406 459.257812 1033.96875 458.378906 1034.214844 457.441406 C 1034.632812 455.84375 1032.8125 454.816406 1031.511719 455.519531 C 1029.785156 456.445312 1028.769531 458.257812 1028.09375 460.082031 C 1027.023438 460.03125 1025.960938 459.953125 1024.898438 459.835938 C 1022.519531 459.566406 1021.578125 463.035156 1024.042969 463.554688 C 1025.066406 463.777344 1026.105469 463.957031 1027.140625 464.105469 C 1027.039062 465.53125 1027.277344 466.949219 1028.332031 467.902344 C 1029.074219 468.582031 1030.492188 468.644531 1031.148438 467.78125 C 1031.917969 466.773438 1032.015625 465.6875 1032.089844 464.550781 C 1033.707031 464.605469 1035.273438 464.472656 1036.507812 463.292969 C 1037.078125 462.746094 1037.070312 461.535156 1036.410156 461.054688 " fill-opacity="1" fill-rule="nonzero"/><path fill="#a22f3b" d="M 1037.59375 494.402344 C 1036.394531 493.304688 1034.820312 493.070312 1033.246094 492.851562 C 1033.179688 491.890625 1033.101562 490.921875 1033.007812 489.957031 C 1032.765625 487.464844 1029.453125 487.691406 1029.222656 490.078125 C 1029.152344 490.738281 1029.109375 491.402344 1029.058594 492.066406 C 1027.679688 491.75 1026.304688 491.402344 1024.945312 491 C 1022.378906 490.238281 1021.570312 494.164062 1024.03125 495 C 1025.609375 495.535156 1027.207031 495.996094 1028.820312 496.410156 C 1028.757812 498.101562 1028.710938 499.730469 1029.578125 501.238281 C 1030.296875 502.476562 1032.058594 502.253906 1032.722656 501.113281 C 1033.371094 499.984375 1033.460938 498.699219 1033.441406 497.414062 C 1034.796875 497.601562 1036.140625 497.585938 1037.371094 496.890625 C 1038.257812 496.382812 1038.324219 495.0625 1037.59375 494.402344 " fill-opacity="1" fill-rule="nonzero"/><path fill="#a22f3b" d="M 1057.4375 482.375 C 1056.921875 482.207031 1056.394531 482.058594 1055.871094 481.941406 C 1056.21875 480.691406 1056.457031 479.398438 1056.121094 478.199219 C 1055.902344 477.398438 1054.773438 476.871094 1054.054688 477.421875 C 1052.796875 478.394531 1052.167969 479.917969 1051.621094 481.429688 C 1049.402344 481.371094 1047.164062 481.597656 1044.980469 481.972656 C 1042.472656 482.402344 1043.160156 486.769531 1045.695312 486.402344 C 1047.167969 486.195312 1048.605469 486.125 1050.039062 486.140625 C 1049.933594 486.917969 1050 487.699219 1050.40625 488.492188 C 1050.828125 489.320312 1051.886719 489.347656 1052.609375 488.996094 C 1053.605469 488.515625 1054.152344 487.535156 1054.535156 486.46875 C 1054.738281 486.492188 1054.929688 486.507812 1055.132812 486.53125 C 1056.601562 486.730469 1059.535156 486.808594 1059.160156 484.472656 C 1058.988281 483.394531 1058.480469 482.71875 1057.4375 482.375 " fill-opacity="1" fill-rule="nonzero"/><path fill="#a22f3b" d="M 1060.53125 521.933594 C 1059.460938 520.023438 1057.484375 518.753906 1055.207031 517.898438 C 1055.398438 516.824219 1055.558594 515.753906 1055.648438 514.664062 C 1055.796875 512.925781 1052.910156 512.261719 1052.289062 513.894531 C 1051.917969 514.859375 1051.613281 515.839844 1051.328125 516.828125 C 1049.261719 516.429688 1047.207031 516.246094 1045.542969 516.15625 C 1043.621094 516.046875 1043.273438 519.316406 1045.210938 519.53125 C 1046.972656 519.734375 1048.683594 520.082031 1050.363281 520.5625 C 1050.292969 520.839844 1050.226562 521.113281 1050.160156 521.394531 C 1049.597656 523.753906 1048.632812 526.085938 1049.171875 528.492188 C 1049.453125 529.746094 1051.324219 530.183594 1052.125 529.171875 C 1053.65625 527.234375 1053.796875 524.71875 1054.3125 522.34375 C 1054.335938 522.246094 1054.355469 522.144531 1054.378906 522.046875 C 1056.050781 522.8125 1057.636719 523.640625 1059.535156 523.792969 C 1060.523438 523.871094 1060.933594 522.652344 1060.53125 521.933594 " fill-opacity="1" fill-rule="nonzero"/><path fill="#a22f3b" d="M 1083.785156 513.25 C 1082.796875 511.476562 1080.941406 510.367188 1078.804688 509.683594 C 1078.875 508.925781 1078.933594 508.171875 1078.984375 507.460938 C 1079.175781 504.941406 1075.300781 505.121094 1075.082031 507.582031 C 1075.042969 508.015625 1074.980469 508.453125 1074.90625 508.890625 C 1073.015625 508.6875 1071.167969 508.691406 1069.683594 508.792969 C 1067.460938 508.941406 1067.570312 512.210938 1069.792969 512.242188 C 1071.21875 512.261719 1072.648438 512.445312 1074.046875 512.753906 C 1073.601562 514.664062 1073.253906 516.574219 1073.550781 518.417969 C 1073.652344 519.078125 1074.449219 519.824219 1075.128906 519.261719 C 1076.710938 517.960938 1077.582031 516.113281 1078.105469 514.113281 C 1079.535156 514.769531 1080.890625 515.488281 1082.519531 515.632812 C 1083.777344 515.742188 1084.300781 514.167969 1083.785156 513.25 " fill-opacity="1" fill-rule="nonzero"/><path fill="#a22f3b" d="M 1096.472656 503.402344 C 1096.8125 502.882812 1097.144531 502.351562 1097.4375 501.804688 C 1098.292969 500.214844 1096.25 498.027344 1094.691406 499.265625 C 1093.992188 499.820312 1093.394531 500.488281 1092.859375 501.203125 C 1092.269531 500.90625 1091.699219 500.617188 1091.179688 500.332031 C 1089.007812 499.125 1087.277344 502.476562 1089.394531 503.742188 C 1089.898438 504.039062 1090.414062 504.375 1090.945312 504.714844 C 1090.707031 505.492188 1090.808594 506.289062 1091.4375 506.886719 C 1091.867188 507.292969 1092.308594 507.359375 1092.863281 507.414062 C 1093.464844 507.472656 1094.023438 507.066406 1094.390625 506.605469 C 1094.789062 506.757812 1095.191406 506.890625 1095.601562 506.972656 C 1097.371094 507.328125 1098.234375 505.285156 1097.136719 504.050781 C 1096.933594 503.820312 1096.710938 503.613281 1096.472656 503.402344 " fill-opacity="1" fill-rule="nonzero"/><path fill="#a22f3b" d="M 1068.554688 546.425781 C 1068.128906 547.503906 1067.707031 548.585938 1067.285156 549.664062 C 1065.730469 549.261719 1064.21875 548.773438 1062.738281 548.152344 C 1060.597656 547.257812 1058.878906 550.421875 1061.046875 551.386719 C 1062.378906 551.980469 1064.089844 552.796875 1065.835938 553.332031 C 1065.488281 554.300781 1065.28125 555.273438 1065.578125 556.351562 C 1065.835938 557.289062 1067.023438 557.730469 1067.832031 557.203125 C 1069.078125 556.382812 1069.53125 555.117188 1069.984375 553.785156 C 1070.246094 553.742188 1070.511719 553.707031 1070.757812 553.625 C 1071.71875 553.292969 1072.289062 551.839844 1071.332031 551.128906 C 1071.230469 551.050781 1071.113281 551.003906 1071.007812 550.9375 C 1071.390625 549.878906 1071.777344 548.820312 1072.160156 547.757812 C 1072.902344 545.714844 1069.359375 544.375 1068.554688 546.425781 " fill-opacity="1" fill-rule="nonzero"/><path fill="#a22f3b" d="M 1097.558594 545.347656 C 1096.839844 544.503906 1095.816406 544.011719 1094.746094 543.621094 C 1095.070312 542.789062 1095.367188 541.953125 1095.578125 541.097656 C 1095.976562 539.460938 1093.660156 538.074219 1092.550781 539.503906 C 1091.875 540.375 1091.3125 541.335938 1090.800781 542.332031 C 1089.378906 541.867188 1087.960938 541.410156 1086.535156 540.949219 C 1084.183594 540.1875 1082.671875 544.164062 1085.019531 545.054688 C 1086.316406 545.550781 1087.613281 546.039062 1088.910156 546.53125 C 1088.066406 548.5 1087.078125 550.617188 1087.503906 552.734375 C 1087.792969 554.183594 1089.605469 554.234375 1090.5 553.421875 C 1091.90625 552.148438 1092.398438 549.90625 1093.007812 548.066406 C 1094.242188 548.484375 1095.472656 548.753906 1096.835938 548.488281 C 1098.390625 548.191406 1098.363281 546.292969 1097.558594 545.347656 " fill-opacity="1" fill-rule="nonzero"/><path fill="#a22f3b" d="M 1122.917969 537.703125 C 1122.765625 537.636719 1122.605469 537.59375 1122.449219 537.53125 C 1122.640625 537.027344 1122.8125 536.503906 1123.019531 536.007812 C 1123.808594 534.113281 1121.203125 532.675781 1120.160156 534.511719 C 1119.78125 535.179688 1119.449219 535.859375 1119.097656 536.53125 C 1117.738281 536.261719 1116.347656 536.128906 1114.933594 536.136719 C 1112.035156 536.152344 1112.214844 540.535156 1115.070312 540.605469 C 1115.785156 540.625 1116.460938 540.699219 1117.121094 540.816406 C 1117.003906 541.105469 1116.867188 541.378906 1116.757812 541.671875 C 1115.996094 543.710938 1114.71875 546.160156 1116.046875 548.15625 C 1116.511719 548.863281 1117.441406 549.089844 1118.171875 548.644531 C 1120.039062 547.511719 1120.066406 545.21875 1120.585938 543.253906 C 1120.695312 542.84375 1120.835938 542.433594 1120.953125 542.023438 C 1121.617188 542.308594 1122.277344 542.617188 1122.949219 542.949219 C 1124.261719 543.601562 1126.824219 544.570312 1127.253906 542.359375 C 1127.699219 540.109375 1124.574219 538.402344 1122.917969 537.703125 " fill-opacity="1" fill-rule="nonzero"/><path fill="#a22f3b" d="M 1189.375 523.546875 C 1188.699219 524.824219 1187.96875 526.070312 1187.222656 527.304688 C 1185.421875 526.285156 1183.609375 525.28125 1181.804688 524.269531 C 1179.238281 522.820312 1177.199219 526.792969 1179.695312 528.304688 C 1181.351562 529.304688 1183 530.304688 1184.65625 531.308594 C 1184.304688 531.996094 1184.085938 532.710938 1184.207031 533.464844 C 1184.410156 534.714844 1185.347656 535.550781 1186.664062 535.234375 C 1187.652344 535 1188.355469 534.316406 1188.914062 533.492188 C 1189.582031 533.652344 1190.277344 533.679688 1191.015625 533.472656 C 1191.835938 533.238281 1192.222656 532.371094 1192.035156 531.582031 C 1191.839844 530.8125 1191.425781 530.1875 1190.890625 529.667969 C 1191.566406 528.238281 1192.183594 526.785156 1192.734375 525.304688 C 1193.558594 523.089844 1190.558594 521.320312 1189.375 523.546875 " fill-opacity="1" fill-rule="nonzero"/><path fill="#a22f3b" d="M 1210.929688 527.886719 C 1211.488281 527.296875 1212.058594 526.722656 1212.6875 526.207031 C 1213.558594 525.484375 1213.988281 524.390625 1213.347656 523.339844 C 1212.8125 522.472656 1211.347656 521.976562 1210.480469 522.679688 C 1209.675781 523.335938 1208.886719 524.015625 1208.152344 524.734375 C 1207.660156 524.183594 1207.160156 523.636719 1206.605469 523.128906 C 1205.246094 521.882812 1202.457031 523.292969 1203.300781 525.203125 C 1203.789062 526.304688 1204.441406 527.378906 1205.160156 528.429688 C 1204.285156 529.789062 1203.488281 531.394531 1203.699219 532.917969 C 1203.828125 533.855469 1204.746094 534.472656 1205.621094 533.949219 C 1206.515625 533.417969 1207.183594 532.558594 1207.820312 531.683594 C 1208.445312 532.308594 1209.101562 532.890625 1209.777344 533.40625 C 1210.675781 534.09375 1211.820312 534.214844 1212.726562 533.460938 C 1213.515625 532.808594 1213.898438 531.433594 1213.207031 530.546875 C 1212.492188 529.621094 1211.710938 528.753906 1210.929688 527.886719 " fill-opacity="1" fill-rule="nonzero"/><path fill="#a22f3b" d="M 1234.148438 533.726562 C 1232.863281 532.066406 1231.199219 530.53125 1229.394531 529.21875 C 1229.667969 528.542969 1229.960938 527.875 1230.207031 527.179688 C 1231.007812 524.933594 1227.542969 523.890625 1226.445312 525.789062 C 1226.210938 526.1875 1226.015625 526.609375 1225.796875 527.011719 C 1225.617188 526.921875 1225.4375 526.824219 1225.261719 526.738281 C 1223.355469 525.828125 1221.425781 528.355469 1223.085938 529.839844 C 1223.375 530.097656 1223.679688 530.347656 1223.976562 530.601562 C 1223.5 531.617188 1223.035156 532.628906 1222.617188 533.671875 C 1222.261719 534.546875 1222.289062 535.628906 1223.074219 536.285156 C 1223.375 536.539062 1223.660156 536.734375 1224.058594 536.804688 C 1225.023438 536.964844 1226.007812 536.585938 1226.476562 535.691406 C 1226.832031 535.019531 1227.128906 534.328125 1227.457031 533.652344 C 1227.914062 534.058594 1228.382812 534.449219 1228.820312 534.875 C 1229.625 535.648438 1230.574219 536.875 1231.722656 537.140625 C 1232.695312 537.359375 1233.828125 536.910156 1234.238281 535.984375 C 1234.539062 535.292969 1234.648438 534.375 1234.148438 533.726562 " fill-opacity="1" fill-rule="nonzero"/><path fill="#a22f3b" d="M 1186.117188 493.050781 C 1186.964844 491.671875 1187.695312 490.214844 1188.226562 488.664062 C 1188.996094 486.425781 1185.367188 485.128906 1184.359375 487.234375 C 1183.804688 488.394531 1183.179688 489.480469 1182.5 490.515625 C 1181.898438 490.144531 1181.28125 489.804688 1180.613281 489.53125 C 1179.519531 489.089844 1177.875 489.988281 1178.417969 491.339844 C 1178.792969 492.277344 1179.277344 493.085938 1179.851562 493.835938 C 1179.550781 494.152344 1179.261719 494.46875 1178.9375 494.769531 C 1178.355469 495.300781 1178.25 496.234375 1178.433594 496.949219 C 1178.59375 497.5625 1178.949219 498.070312 1179.554688 498.304688 C 1180.5625 498.6875 1181.472656 498.589844 1182.269531 497.832031 C 1182.558594 497.550781 1182.8125 497.246094 1183.089844 496.953125 C 1184.359375 497.917969 1185.894531 498.75 1187.402344 498.289062 C 1188.105469 498.070312 1188.796875 497.28125 1188.695312 496.496094 C 1188.484375 494.910156 1187.335938 493.9375 1186.117188 493.050781 " fill-opacity="1" fill-rule="nonzero"/><path fill="#a22f3b" d="M 1209.925781 496.246094 C 1209.363281 495.363281 1208.730469 494.53125 1208.054688 493.738281 C 1208.640625 492.738281 1209.125 491.683594 1209.398438 490.550781 C 1209.820312 488.796875 1207.402344 487.402344 1206.199219 488.871094 C 1205.738281 489.441406 1205.300781 490.027344 1204.859375 490.613281 C 1203.273438 489.308594 1201.535156 488.183594 1199.691406 487.269531 C 1197.949219 486.410156 1195.925781 488.957031 1197.640625 490.1875 C 1199.199219 491.308594 1200.648438 492.527344 1202.03125 493.8125 C 1200.847656 494.808594 1199.460938 495.734375 1199.136719 497.253906 C 1198.828125 498.714844 1199.914062 499.734375 1201.269531 499.851562 C 1202.882812 499.984375 1204.339844 498.621094 1205.46875 497.304688 C 1205.925781 497.800781 1206.390625 498.300781 1206.835938 498.824219 C 1208.347656 500.578125 1211.140625 498.132812 1209.925781 496.246094 " fill-opacity="1" fill-rule="nonzero"/><path fill="#a22f3b" d="M 1224.980469 495.757812 C 1225.503906 494.953125 1226.027344 494.144531 1226.578125 493.351562 C 1227.816406 491.558594 1224.847656 489.503906 1223.457031 491.15625 C 1222.898438 491.820312 1222.324219 492.453125 1221.753906 493.097656 C 1221.398438 492.816406 1221.035156 492.535156 1220.683594 492.25 C 1218.75 490.675781 1216.1875 493.394531 1218.046875 495.128906 C 1218.394531 495.453125 1218.738281 495.785156 1219.082031 496.117188 C 1218.128906 497.160156 1217.167969 498.320312 1217.351562 499.71875 C 1217.480469 500.71875 1218.277344 501.859375 1219.449219 501.691406 C 1220.539062 501.542969 1221.230469 501.28125 1221.890625 500.335938 C 1222.128906 499.992188 1222.371094 499.640625 1222.609375 499.296875 C 1222.785156 499.429688 1222.945312 499.574219 1223.121094 499.707031 C 1225.238281 501.257812 1227.816406 498.601562 1225.921875 496.652344 C 1225.621094 496.34375 1225.304688 496.050781 1224.980469 495.757812 " fill-opacity="1" fill-rule="nonzero"/><path fill="#a22f3b" d="M 1188.148438 462.300781 C 1187.238281 463.027344 1186.230469 463.742188 1185.253906 464.492188 C 1184.777344 464.109375 1184.296875 463.722656 1183.820312 463.335938 C 1181.964844 461.851562 1179.460938 464.492188 1181.292969 466.09375 C 1181.667969 466.421875 1182.050781 466.75 1182.429688 467.082031 C 1182.128906 467.4375 1181.847656 467.792969 1181.605469 468.175781 C 1181.210938 468.804688 1181.273438 469.816406 1181.691406 470.410156 C 1181.804688 470.570312 1181.933594 470.742188 1182.078125 470.875 C 1182.863281 471.609375 1183.886719 471.550781 1184.789062 471.121094 C 1185.277344 470.886719 1185.707031 470.582031 1186.117188 470.253906 C 1187.007812 470.945312 1187.960938 471.464844 1189.175781 471.234375 C 1189.785156 471.117188 1190.144531 470.441406 1190.15625 469.875 C 1190.164062 468.921875 1189.636719 468.171875 1188.96875 467.523438 C 1189.613281 466.882812 1190.253906 466.238281 1190.894531 465.597656 C 1192.582031 463.910156 1190.085938 460.761719 1188.148438 462.300781 " fill-opacity="1" fill-rule="nonzero"/><path fill="#a22f3b" d="M 1210.855469 473.054688 C 1210.5 472.640625 1210.082031 472.269531 1209.664062 471.898438 C 1210.050781 471.089844 1210.324219 470.226562 1210.429688 469.316406 C 1210.679688 467.070312 1207.609375 466.269531 1206.953125 468.519531 C 1206.894531 468.730469 1206.785156 468.90625 1206.699219 469.097656 C 1206.246094 468.625 1205.800781 468.144531 1205.390625 467.628906 C 1204.046875 465.953125 1201.4375 467.476562 1202.511719 469.433594 C 1202.964844 470.246094 1203.496094 471.101562 1204.09375 471.933594 C 1203.878906 472.0625 1203.671875 472.203125 1203.453125 472.324219 C 1201.410156 473.410156 1202.953125 476.8125 1205.136719 476.039062 C 1205.816406 475.792969 1206.445312 475.457031 1207.027344 475.050781 C 1207.570312 475.457031 1208.136719 475.808594 1208.738281 476.070312 C 1210.742188 476.929688 1212.226562 474.640625 1210.855469 473.054688 " fill-opacity="1" fill-rule="nonzero"/><path fill="#a22f3b" d="M 1130.394531 586.683594 C 1128.113281 584.796875 1125.160156 584.730469 1122.28125 584.503906 C 1122.234375 584.5 1122.1875 584.5 1122.136719 584.496094 C 1122.316406 584.070312 1122.503906 583.648438 1122.71875 583.234375 C 1123.9375 580.855469 1120.40625 579.035156 1119.058594 581.316406 C 1118.496094 582.265625 1117.945312 583.273438 1117.457031 584.316406 C 1115.210938 584.308594 1112.964844 584.390625 1110.71875 584.570312 C 1108.042969 584.785156 1108.152344 588.941406 1110.847656 588.757812 C 1112.558594 588.640625 1114.269531 588.570312 1115.976562 588.558594 C 1115.554688 590.457031 1115.46875 592.386719 1116.019531 594.273438 C 1116.378906 595.507812 1118.304688 595.796875 1118.859375 594.542969 C 1119.703125 592.644531 1120.210938 590.664062 1120.753906 588.695312 C 1120.828125 588.699219 1120.898438 588.699219 1120.972656 588.707031 C 1123.917969 588.902344 1127.058594 589.875 1129.886719 588.890625 C 1130.773438 588.582031 1131.195312 587.347656 1130.394531 586.683594 " fill-opacity="1" fill-rule="nonzero"/><path fill="#a22f3b" d="M 1162.492188 586.097656 C 1162.140625 584.164062 1159.921875 583.484375 1158.171875 582.933594 C 1158.539062 581.792969 1158.945312 580.667969 1159.40625 579.550781 C 1160.34375 577.269531 1157.261719 575.574219 1155.96875 577.757812 C 1155.191406 579.070312 1154.523438 580.457031 1153.957031 581.882812 C 1153.039062 581.730469 1152.109375 581.609375 1151.171875 581.53125 C 1149.027344 581.347656 1148.699219 584.910156 1150.804688 585.273438 C 1151.449219 585.386719 1152.085938 585.523438 1152.722656 585.671875 C 1152.171875 587.847656 1151.171875 590.917969 1153.164062 592.558594 C 1153.703125 593.003906 1154.433594 593.101562 1155.042969 592.730469 C 1156.992188 591.539062 1156.714844 589.210938 1157.085938 587.175781 C 1158.453125 587.875 1159.824219 588.828125 1161.351562 588.210938 C 1162.28125 587.839844 1162.671875 587.074219 1162.492188 586.097656 " fill-opacity="1" fill-rule="nonzero"/><path fill="#a22f3b" d="M 1196.023438 581.105469 C 1195.488281 579.371094 1193.945312 578.273438 1192.414062 577.285156 C 1193.285156 575.824219 1194.144531 574.355469 1195.042969 572.917969 C 1196.148438 571.140625 1193.3125 569.105469 1192.011719 570.789062 C 1190.953125 572.15625 1189.855469 573.492188 1188.773438 574.835938 C 1187.425781 573.917969 1186.078125 573.003906 1184.734375 572.078125 C 1182.679688 570.6875 1180.253906 574.121094 1182.21875 575.664062 C 1183.445312 576.632812 1184.667969 577.597656 1185.898438 578.5625 C 1185.332031 579.351562 1184.773438 580.148438 1184.261719 580.972656 C 1183.8125 581.6875 1183.941406 582.6875 1184.355469 583.375 C 1184.734375 584 1185.152344 584.3125 1185.859375 584.445312 C 1186.660156 584.597656 1187.652344 584.410156 1188.179688 583.726562 C 1188.714844 583.035156 1189.210938 582.316406 1189.703125 581.589844 C 1191.042969 582.664062 1192.488281 583.667969 1194.183594 583.65625 C 1195.460938 583.644531 1196.386719 582.304688 1196.023438 581.105469 " fill-opacity="1" fill-rule="nonzero"/><path fill="#a22f3b" d="M 1225.84375 564.773438 C 1224.121094 566.59375 1222.234375 568.601562 1220.597656 570.757812 C 1219.203125 570.160156 1217.738281 569.742188 1216.230469 569.535156 C 1213.84375 569.199219 1212.980469 572.617188 1215.382812 573.226562 C 1216.390625 573.480469 1217.371094 573.84375 1218.304688 574.300781 C 1217.839844 575.175781 1217.417969 576.066406 1217.117188 576.980469 C 1216.40625 579.125 1219.609375 580.722656 1220.992188 579.015625 C 1221.441406 578.457031 1221.835938 577.859375 1222.214844 577.25 C 1222.957031 577.972656 1223.714844 578.65625 1224.75 579.011719 C 1225.902344 579.40625 1227.222656 578.21875 1227.121094 577.0625 C 1226.976562 575.433594 1225.898438 574.191406 1224.632812 573.179688 C 1225.914062 571.1875 1227.238281 569.261719 1228.746094 567.425781 C 1230.335938 565.484375 1227.597656 562.917969 1225.84375 564.773438 " fill-opacity="1" fill-rule="nonzero"/><path fill="#a22f3b" d="M 1017.574219 714.730469 C 1016.449219 713.699219 1015.179688 712.828125 1013.835938 712.058594 C 1014.34375 710.4375 1014.8125 708.804688 1015.164062 707.171875 C 1015.734375 704.550781 1012.269531 703.464844 1010.925781 705.605469 C 1010.109375 706.902344 1009.363281 708.261719 1008.65625 709.640625 C 1007.667969 709.253906 1006.683594 708.894531 1005.710938 708.546875 C 1003.183594 707.640625 1001.550781 711.972656 1004.070312 712.996094 C 1004.925781 713.34375 1005.742188 713.738281 1006.554688 714.148438 C 1006.242188 714.898438 1005.929688 715.652344 1005.648438 716.40625 C 1004.285156 720.019531 1009.476562 722.980469 1011.113281 719.269531 C 1011.421875 718.570312 1011.710938 717.851562 1012.003906 717.132812 C 1012.933594 717.652344 1013.875 718.160156 1014.839844 718.628906 C 1015.535156 718.964844 1016.578125 719.0625 1017.226562 718.535156 C 1017.804688 718.070312 1018.046875 717.726562 1018.292969 717.039062 C 1018.570312 716.257812 1018.148438 715.257812 1017.574219 714.730469 " fill-opacity="1" fill-rule="nonzero"/><path fill="#a22f3b" d="M 1028.550781 753.675781 C 1027.546875 751.804688 1024.988281 750.984375 1023.132812 749.839844 C 1023.632812 748.886719 1024.113281 747.921875 1024.558594 746.917969 C 1025.503906 744.773438 1022.898438 742.851562 1021.183594 744.550781 C 1020.523438 745.199219 1019.921875 745.871094 1019.316406 746.542969 C 1018.488281 745.65625 1017.71875 744.71875 1017.019531 743.714844 C 1015.550781 741.597656 1012.269531 743.621094 1013.617188 745.847656 C 1014.46875 747.257812 1015.441406 748.605469 1016.523438 749.859375 C 1016.496094 749.890625 1016.472656 749.921875 1016.445312 749.953125 C 1015.03125 751.761719 1013.109375 753.632812 1013.316406 756.09375 C 1013.445312 757.6875 1014.902344 758.847656 1016.5 758.386719 C 1018.699219 757.753906 1019.765625 755.738281 1020.855469 753.863281 C 1022.792969 755.375 1025.222656 757.007812 1027.542969 756.351562 C 1028.734375 756.019531 1029.089844 754.679688 1028.550781 753.675781 " fill-opacity="1" fill-rule="nonzero"/><path fill="#a22f3b" d="M 1065.78125 745.207031 C 1066.582031 743.800781 1067.394531 742.394531 1068.234375 741.007812 C 1069.535156 738.847656 1066.097656 736.351562 1064.558594 738.425781 C 1063.738281 739.535156 1062.921875 740.640625 1062.117188 741.746094 C 1061.167969 740.949219 1060.195312 740.171875 1059.179688 739.4375 C 1056.960938 737.820312 1054.03125 740.773438 1056.21875 742.667969 C 1057.308594 743.617188 1058.347656 744.621094 1059.355469 745.65625 C 1059.238281 745.839844 1059.105469 746.007812 1058.984375 746.1875 C 1057.347656 748.621094 1055.003906 751.207031 1055.171875 754.289062 C 1055.265625 756.070312 1057.097656 756.902344 1058.589844 756.113281 C 1060.816406 754.945312 1061.914062 752.378906 1063.046875 750.140625 C 1063.980469 751.476562 1065.011719 752.753906 1066.546875 753.074219 C 1067.621094 753.296875 1068.992188 752.628906 1069.15625 751.4375 C 1069.507812 748.871094 1067.496094 746.960938 1065.78125 745.207031 " fill-opacity="1" fill-rule="nonzero"/><path fill="#a22f3b" d="M 1130.265625 744.648438 C 1129.46875 743.210938 1128.035156 742.128906 1126.558594 741.195312 C 1127.175781 740.367188 1127.824219 739.566406 1128.546875 738.816406 C 1130.386719 736.898438 1127.457031 734.328125 1125.542969 736.0625 C 1124.546875 736.96875 1123.621094 737.929688 1122.742188 738.925781 C 1121.203125 738.058594 1119.578125 737.289062 1117.859375 736.941406 C 1117.84375 736.941406 1117.835938 736.929688 1117.820312 736.925781 L 1117.414062 736.835938 C 1115.597656 736.417969 1114.394531 738.75 1115.742188 740.011719 C 1116.945312 741.128906 1118.359375 741.992188 1119.761719 742.859375 C 1119.691406 742.972656 1119.609375 743.074219 1119.539062 743.1875 C 1118.046875 745.558594 1116.238281 748.578125 1118.332031 751.007812 C 1118.789062 751.539062 1119.667969 751.628906 1120.292969 751.460938 C 1122.738281 750.796875 1123.078125 747.910156 1123.921875 745.796875 C 1125.128906 746.742188 1126.367188 747.640625 1127.8125 748.097656 C 1129.835938 748.742188 1131.152344 746.25 1130.265625 744.648438 " fill-opacity="1" fill-rule="nonzero"/><path fill="#a22f3b" d="M 1190.546875 734 C 1191.683594 732.46875 1192.972656 731.054688 1194.371094 729.75 C 1196.246094 728 1193.558594 724.742188 1191.464844 726.261719 C 1189.675781 727.558594 1188.011719 728.984375 1186.535156 730.605469 C 1185.578125 729.773438 1184.585938 728.980469 1183.457031 728.421875 C 1181.390625 727.386719 1179.515625 729.667969 1180.527344 731.585938 C 1181.195312 732.847656 1182.203125 733.921875 1183.269531 734.925781 C 1182.144531 736.675781 1181.195312 738.617188 1181.207031 740.570312 C 1181.21875 742.867188 1184.21875 743.890625 1185.726562 742.25 C 1186.597656 741.304688 1187.203125 740.109375 1187.765625 738.882812 C 1188.796875 739.722656 1189.863281 740.523438 1190.980469 741.222656 C 1193.570312 742.855469 1196.199219 738.902344 1194.015625 736.898438 C 1192.910156 735.882812 1191.730469 734.941406 1190.546875 734 " fill-opacity="1" fill-rule="nonzero"/><path fill="#a22f3b" d="M 1246.21875 727.707031 C 1245.519531 726.339844 1244.582031 724.976562 1243.496094 723.71875 C 1244.394531 722.21875 1245.253906 720.679688 1246.136719 719.179688 C 1247.722656 716.5 1243.5625 714.425781 1241.898438 716.960938 C 1241.179688 718.070312 1240.421875 719.179688 1239.683594 720.289062 C 1238.726562 719.636719 1237.71875 719.085938 1236.691406 718.6875 C 1234.660156 717.90625 1232.257812 720.480469 1234.289062 722.109375 C 1235.300781 722.917969 1236.242188 723.710938 1237.128906 724.527344 C 1236.941406 724.882812 1236.734375 725.230469 1236.566406 725.59375 C 1236.113281 726.539062 1236.261719 727.71875 1237.0625 728.4375 C 1237.386719 728.734375 1237.726562 728.859375 1238.132812 729 C 1238.863281 729.261719 1239.941406 728.886719 1240.410156 728.292969 C 1240.441406 728.253906 1240.472656 728.207031 1240.5 728.164062 C 1241.027344 728.84375 1241.53125 729.5625 1242.015625 730.339844 C 1243.714844 733.097656 1247.660156 730.507812 1246.21875 727.707031 " fill-opacity="1" fill-rule="nonzero"/><path fill="#a22f3b" d="M 1206.09375 699.167969 C 1205.046875 698.222656 1203.847656 697.421875 1202.675781 696.625 C 1203.609375 695.695312 1204.683594 694.886719 1205.902344 694.25 C 1207.996094 693.148438 1206.402344 689.632812 1204.175781 690.441406 C 1201.855469 691.285156 1199.867188 692.527344 1198.144531 694.109375 C 1198.105469 694.101562 1198.074219 694.082031 1198.035156 694.074219 C 1196.46875 693.773438 1195.457031 695.21875 1195.878906 696.582031 C 1195.570312 696.980469 1195.273438 697.394531 1194.988281 697.828125 C 1193.050781 700.753906 1198.167969 703.652344 1199.855469 700.75 C 1200.9375 701.640625 1202.035156 702.527344 1203.222656 703.265625 C 1203.914062 703.699219 1205.070312 703.652344 1205.730469 703.167969 C 1206.347656 702.710938 1206.597656 702.296875 1206.847656 701.59375 C 1207.136719 700.78125 1206.703125 699.714844 1206.09375 699.167969 " fill-opacity="1" fill-rule="nonzero"/><path fill="#a22f3b" d="M 1033.867188 796.683594 C 1032.765625 795.007812 1031.34375 793.363281 1029.78125 791.855469 C 1030.210938 791.304688 1030.613281 790.742188 1030.878906 790.15625 C 1031.546875 788.6875 1030.289062 787.171875 1028.722656 787.546875 C 1027.851562 787.753906 1026.988281 788.230469 1026.179688 788.8125 C 1025.535156 788.339844 1024.890625 787.886719 1024.25 787.484375 C 1022.496094 786.382812 1020.0625 788.882812 1021.410156 790.550781 C 1021.832031 791.070312 1022.285156 791.546875 1022.730469 792.03125 C 1021.707031 793.148438 1020.734375 794.304688 1019.851562 795.53125 C 1017.484375 798.816406 1022.285156 802.246094 1024.417969 798.738281 C 1025.027344 797.742188 1025.699219 796.800781 1026.402344 795.875 C 1027.644531 797.191406 1028.839844 798.558594 1030.238281 799.703125 C 1032.238281 801.347656 1035.40625 799.023438 1033.867188 796.683594 " fill-opacity="1" fill-rule="nonzero"/><path fill="#a22f3b" d="M 1070.777344 792.6875 C 1072.765625 790.53125 1069.566406 787.71875 1067.460938 789.648438 C 1066.515625 790.511719 1065.601562 791.425781 1064.707031 792.363281 C 1063.910156 791.734375 1063.09375 791.132812 1062.25 790.558594 C 1060.324219 789.246094 1057.96875 792.542969 1059.882812 793.933594 C 1060.601562 794.453125 1061.292969 795.011719 1061.972656 795.585938 C 1061.160156 796.667969 1060.398438 797.777344 1059.769531 798.96875 C 1059.167969 800.117188 1059.53125 801.316406 1060.339844 802.21875 C 1060.667969 802.582031 1061.089844 802.773438 1061.5625 802.859375 C 1062.828125 803.089844 1063.898438 802.542969 1064.5625 801.480469 C 1064.960938 800.839844 1065.359375 800.210938 1065.753906 799.578125 C 1066.480469 800.539062 1067.230469 801.484375 1068.214844 802.011719 C 1069.421875 802.660156 1071.394531 801.703125 1071.15625 800.167969 C 1070.875 798.425781 1069.628906 796.980469 1068.363281 795.691406 C 1069.109375 794.660156 1069.890625 793.648438 1070.777344 792.6875 " fill-opacity="1" fill-rule="nonzero"/><path fill="#a22f3b" d="M 1129.976562 793.863281 C 1129.054688 793.046875 1128.109375 792.246094 1127.15625 791.457031 C 1127.78125 790.589844 1128.558594 789.824219 1129.375 789.144531 C 1131.300781 787.539062 1128.578125 784.277344 1126.542969 785.742188 C 1125.464844 786.515625 1124.367188 787.457031 1123.414062 788.527344 C 1122.71875 788.019531 1122.015625 787.519531 1121.300781 787.042969 C 1119.222656 785.652344 1117.4375 788.804688 1118.929688 790.417969 C 1119.617188 791.15625 1120.335938 791.871094 1121.0625 792.578125 C 1120.832031 793.703125 1121.140625 794.851562 1122.261719 795.4375 C 1122.886719 795.765625 1123.640625 795.773438 1124.304688 795.539062 C 1125.078125 796.207031 1125.851562 796.867188 1126.632812 797.507812 C 1129.066406 799.519531 1132.382812 795.984375 1129.976562 793.863281 " fill-opacity="1" fill-rule="nonzero"/><path fill="#a22f3b" d="M 1189.703125 784.042969 C 1189.003906 783.566406 1188.308594 783.082031 1187.625 782.589844 C 1188.238281 781.691406 1188.949219 780.878906 1189.785156 780.132812 C 1191.761719 778.367188 1188.871094 774.835938 1186.773438 776.511719 C 1185.632812 777.425781 1184.617188 778.441406 1183.726562 779.5625 C 1182.769531 778.753906 1181.828125 777.925781 1180.933594 777.027344 C 1179.066406 775.160156 1176.507812 778.097656 1178.203125 780.011719 C 1179.238281 781.1875 1180.34375 782.289062 1181.488281 783.34375 C 1180.773438 785.085938 1180.449219 786.996094 1181.769531 788.492188 C 1182.394531 789.203125 1183.527344 789.117188 1184.28125 788.71875 C 1185.070312 788.300781 1185.492188 787.566406 1185.804688 786.746094 C 1186.417969 787.152344 1187.027344 787.566406 1187.671875 787.933594 C 1188.320312 788.300781 1189.234375 788.261719 1189.851562 787.84375 C 1190.625 787.328125 1190.800781 786.824219 1190.882812 785.917969 C 1190.953125 785.097656 1190.3125 784.453125 1189.703125 784.042969 " fill-opacity="1" fill-rule="nonzero"/><path fill="#a22f3b" d="M 1254.648438 776.1875 C 1253.503906 774.792969 1252.203125 773.542969 1250.847656 772.355469 C 1251.488281 770.742188 1252.097656 769.117188 1252.6875 767.484375 C 1253.425781 765.441406 1250.058594 764.230469 1249.132812 766.171875 C 1248.585938 767.324219 1247.992188 768.453125 1247.390625 769.570312 C 1246.445312 768.886719 1245.492188 768.230469 1244.523438 767.597656 C 1242.25 766.113281 1240.40625 769.800781 1242.585938 771.308594 C 1243.492188 771.9375 1244.355469 772.609375 1245.199219 773.300781 C 1244.402344 774.539062 1243.65625 775.84375 1243.875 777.296875 C 1244.054688 778.421875 1245.109375 779.648438 1246.40625 779.117188 C 1247.667969 778.609375 1248.417969 777.710938 1248.996094 776.65625 C 1249.796875 777.398438 1250.597656 778.148438 1251.40625 778.890625 C 1253.105469 780.460938 1256.226562 778.089844 1254.648438 776.1875 " fill-opacity="1" fill-rule="nonzero"/><path fill="#a22f3b" d="M 1257.765625 813.457031 C 1258.089844 812.605469 1258.410156 811.746094 1258.726562 810.890625 C 1259.722656 808.25 1256.300781 806.300781 1254.769531 808.820312 C 1254.253906 809.667969 1253.753906 810.519531 1253.25 811.367188 C 1252.589844 811.167969 1251.933594 810.992188 1251.265625 810.863281 C 1248.554688 810.339844 1247.589844 814.453125 1250.300781 815.054688 C 1250.53125 815.101562 1250.753906 815.167969 1250.976562 815.226562 C 1250.53125 816.035156 1250.148438 816.875 1250.03125 817.757812 C 1249.675781 820.324219 1252.636719 822.160156 1254.582031 820.152344 C 1255.242188 819.472656 1255.675781 818.628906 1256.054688 817.753906 C 1256.859375 818.347656 1257.691406 818.875 1258.746094 818.851562 C 1259.699219 818.828125 1260.492188 817.980469 1260.457031 817.027344 C 1260.410156 815.417969 1259.097656 814.304688 1257.765625 813.457031 " fill-opacity="1" fill-rule="nonzero"/><path fill="#ee3f50" d="M 1090.929688 484.855469 C 1090.929688 484.855469 1160.71875 572.773438 1168.1875 570.246094 C 1175.65625 567.722656 1182.894531 467.007812 1181.992188 458.515625 C 1181.089844 450.027344 1090.929688 484.855469 1090.929688 484.855469 " fill-opacity="1" fill-rule="nonzero"/><path fill="#ee3f50" d="M 940.289062 484.855469 C 940.289062 484.855469 959.570312 472.453125 965.203125 473.011719 C 1019.496094 477.1875 1061.140625 536.035156 1048.464844 581.300781 C 1014.066406 599.863281 940.289062 484.855469 940.289062 484.855469 " fill-opacity="1" fill-rule="nonzero"/><path fill="#ee3f50" d="M 1214.496094 466.292969 C 1214.496094 466.292969 1248.074219 570.890625 1244 592.167969 C 1252.148438 591.261719 1252.148438 591.261719 1252.148438 591.261719 C 1252.148438 591.261719 1252.3125 507.972656 1226.65625 472.214844 C 1224.445312 469.832031 1214.496094 466.292969 1214.496094 466.292969 " fill-opacity="1" fill-rule="nonzero"/><path fill="#c0cecc" d="M 1121.335938 493.261719 L 1137.859375 515.667969 L 1168.1875 493.714844 L 1168.1875 459.105469 C 1168.1875 459.105469 1125.640625 434.644531 1121.335938 493.261719 " fill-opacity="1" fill-rule="nonzero"/><path fill="#db717f" d="M 1077.203125 574.535156 C 1077.972656 573.296875 1172.636719 604.910156 1226.652344 595.855469 C 1227.554688 609.738281 1157.851562 656.210938 1115.304688 645.046875 C 1072.757812 633.878906 1059.316406 603.304688 1077.203125 574.535156 " fill-opacity="1" fill-rule="nonzero"/><path fill="#f9ab89" d="M 1025.382812 371.273438 C 1025.382812 371.273438 1039.183594 415.179688 1038.957031 416.082031 C 1038.734375 416.988281 1130.457031 460.21875 1134.046875 459.085938 C 1137.632812 457.957031 1154.832031 417.214844 1154.832031 417.214844 L 1148.5625 387.566406 C 1148.5625 387.566406 1192.398438 363.347656 1190.363281 344.109375 C 1188.328125 324.871094 1153.925781 196.996094 1146.683594 182.511719 C 1139.441406 168.027344 1006.371094 196.585938 993.695312 235.265625 C 981.023438 273.945312 1025.382812 371.273438 1025.382812 371.273438 " fill-opacity="1" fill-rule="nonzero"/><path fill="#db717f" d="M 1150.503906 396.71875 L 1148.566406 387.558594 C 1055.613281 411.78125 1039.640625 337.769531 1039.640625 337.769531 C 1039.640625 337.769531 1037.152344 342.296875 1037.832031 342.878906 C 1038.507812 343.464844 1036.925781 383.488281 1073.585938 402.273438 C 1094.402344 412.941406 1116.367188 409.703125 1131.472656 404.910156 C 1130.898438 408.261719 1130.082031 411.546875 1128.484375 414.605469 C 1125.78125 419.78125 1124.75 424.921875 1123.414062 430.589844 C 1123.160156 431.679688 1124.804688 432.046875 1125.09375 430.976562 C 1127.074219 423.710938 1133.875 420.433594 1136.628906 413.921875 C 1138.117188 410.390625 1138.890625 406.195312 1139.289062 402.09375 C 1146.253906 399.277344 1150.503906 396.71875 1150.503906 396.71875 " fill-opacity="1" fill-rule="nonzero"/><path fill="#734646" d="M 1023.191406 292.054688 C 1023.191406 292.054688 1041.148438 315.96875 1042.582031 313.628906 C 1044.015625 311.292969 1039.863281 293.335938 1039.863281 293.335938 C 1039.863281 293.335938 1046.730469 303.523438 1048.390625 302.464844 C 1050.050781 301.40625 1037.375 231.851562 1031.039062 219.855469 C 1057.519531 230.71875 1110.699219 207.402344 1110.929688 205.144531 C 1111.15625 202.878906 1108.210938 200.839844 1108.210938 200.839844 C 1108.210938 200.839844 1185.160156 180.019531 1188.777344 161.234375 C 1189.007812 158.066406 1171.582031 159.652344 1171.582031 159.652344 C 1171.582031 159.652344 1192.175781 144.03125 1191.496094 139.507812 C 1190.816406 134.980469 1155.964844 138.605469 1157.546875 136.566406 C 1159.132812 134.527344 1169.316406 129.777344 1166.828125 125.925781 C 1164.339844 122.078125 1014.515625 128.640625 981.023438 226.417969 C 969.253906 228.226562 977.855469 273.039062 1025.382812 371.269531 C 1038.054688 359.5 1044.84375 330.074219 1044.84375 330.074219 C 1044.84375 330.074219 1013.839844 339.355469 1008.183594 303.820312 C 1005.691406 284.582031 1019.421875 285.035156 1023.191406 292.054688 " fill-opacity="1" fill-rule="nonzero"/><path fill="#734646" d="M 1057.519531 253.421875 C 1058.121094 251.464844 1085.128906 233.808594 1100.820312 238.789062 C 1103.234375 239.84375 1107.308594 249.199219 1104.441406 252.820312 C 1101.574219 256.445312 1063.855469 267.003906 1060.386719 264.289062 C 1056.914062 261.574219 1057.519531 253.421875 1057.519531 253.421875 " fill-opacity="1" fill-rule="nonzero"/><path fill="#734646" d="M 1132.203125 230.339844 C 1132.203125 230.339844 1133.40625 241.503906 1135.371094 243.164062 C 1137.335938 244.824219 1164.339844 238.335938 1165.09375 236.75 C 1165.847656 235.164062 1165.546875 224.003906 1161.925781 221.285156 C 1158.304688 218.570312 1131.753906 226.957031 1132.203125 230.339844 " fill-opacity="1" fill-rule="nonzero"/><path fill="#db717f" d="M 1146.113281 291.738281 C 1144.222656 282.027344 1141.117188 272.683594 1137.648438 263.433594 C 1134.332031 254.585938 1129.152344 245.398438 1127.59375 236.050781 C 1127.371094 234.734375 1125.453125 235.226562 1125.402344 236.40625 C 1124.675781 254.566406 1161.695312 310.796875 1131.414062 317.667969 C 1126.925781 318.683594 1129.003906 325.851562 1133.476562 324.554688 C 1139.117188 322.925781 1145.484375 320.308594 1147.609375 314.246094 C 1149.9375 307.585938 1147.433594 298.464844 1146.113281 291.738281 " fill-opacity="1" fill-rule="nonzero"/><path fill="#2e2f31" d="M 1110.398438 272.417969 C 1102.4375 272.636719 1097 274.753906 1089.734375 277.429688 C 1083.007812 279.910156 1077.386719 281.617188 1072.589844 287.253906 C 1071.730469 288.265625 1072.925781 289.773438 1074.09375 289.0625 C 1076.300781 287.722656 1078.601562 286.511719 1080.945312 285.378906 C 1080.8125 287.636719 1081.464844 289.945312 1082.554688 291.910156 C 1083.609375 293.8125 1086.015625 297.027344 1088.484375 296.960938 C 1091.492188 296.886719 1091.703125 293.703125 1091.339844 291.488281 C 1090.863281 288.609375 1090.339844 284.441406 1088.210938 282.265625 C 1095.4375 279.5625 1103.023438 277.804688 1110.546875 277.140625 C 1113.558594 276.875 1113.464844 272.335938 1110.398438 272.417969 " fill-opacity="1" fill-rule="nonzero"/><path fill="#2e2f31" d="M 1170.011719 257.355469 C 1165.28125 255.648438 1160.003906 257.351562 1155.4375 258.957031 C 1151.261719 260.425781 1145.652344 262.398438 1143.019531 266.082031 C 1142.445312 266.882812 1142.765625 268.492188 1144.039062 268.3125 C 1145.09375 268.15625 1146.113281 267.867188 1147.109375 267.503906 C 1147.660156 269.976562 1148.472656 272.382812 1149.371094 274.757812 C 1150.261719 277.132812 1151.726562 279.3125 1154.492188 279.367188 C 1155.328125 279.386719 1156.285156 278.804688 1156.625 278.03125 C 1157.785156 275.410156 1157.242188 271.972656 1156.675781 269.253906 C 1156.402344 267.921875 1155.851562 265.683594 1154.902344 264.042969 C 1154.957031 264.019531 1155.015625 263.996094 1155.070312 263.972656 C 1159.988281 262.140625 1164.449219 261.601562 1169.640625 261.175781 C 1171.941406 260.992188 1172.03125 258.078125 1170.011719 257.355469 " fill-opacity="1" fill-rule="nonzero"/><path fill="#db717f" d="M 1133.171875 349.679688 C 1119.984375 350.988281 1102.703125 352.898438 1091.878906 343.347656 C 1090.191406 341.863281 1088.125 344.253906 1089.566406 345.871094 C 1099.507812 357.082031 1120.996094 357.1875 1133.648438 351.246094 C 1134.414062 350.886719 1133.976562 349.597656 1133.171875 349.679688 " fill-opacity="1" fill-rule="nonzero"/><path fill="#db717f" d="M 1036.472656 319.285156 C 1036.472656 319.285156 1026.441406 318.453125 1024.402344 313.25 C 1022.367188 308.042969 1030.058594 306.382812 1029.53125 304.726562 C 1029.003906 303.066406 1020.628906 292.578125 1015.726562 298.6875 C 1010.824219 304.800781 1016.179688 320.871094 1028.550781 323.660156 C 1040.921875 326.453125 1039.714844 321.851562 1036.472656 319.285156 " fill-opacity="1" fill-rule="nonzero"/><path fill="#f9ab89" d="M 1230.875 693.335938 C 1230.875 693.335938 1337.992188 696.128906 1354.894531 671.683594 C 1363.339844 650.863281 1368.320312 606.351562 1319.359375 600.089844 C 1301.304688 603.070312 1194.210938 646.761719 1194.210938 646.761719 C 1194.210938 646.761719 1220.308594 693.238281 1230.875 693.335938 " fill-opacity="1" fill-rule="nonzero"/><path fill="#db717f" d="M 1194.210938 693.335938 C 1194.890625 693.335938 1230.875 693.335938 1230.875 693.335938 C 1230.875 693.335938 1224.992188 688.355469 1222.953125 682.699219 C 1238.34375 670.25 1300.804688 610.953125 1302.164062 608.238281 C 1303.746094 605.292969 1320.042969 600.3125 1319.363281 600.089844 C 1318.683594 599.863281 1304.652344 599.632812 1283.832031 602.804688 C 1263.011719 605.972656 1194.210938 693.335938 1194.210938 693.335938 " fill-opacity="1" fill-rule="nonzero"/><path fill="#e8f7f7" d="M 1083.621094 593.070312 C 1083.621094 593.070312 1093.125 589.601562 1093.730469 600.917969 C 1107.910156 589.753906 1109.570312 606.199219 1109.117188 607.40625 C 1108.664062 608.613281 1128.730469 598.351562 1129.484375 616.308594 C 1130.242188 634.261719 1106.703125 728.113281 1106.703125 728.113281 C 1106.703125 728.113281 1095.085938 733.09375 1089.957031 729.925781 C 1084.828125 726.757812 1084.375 722.683594 1083.621094 722.535156 C 1082.867188 722.382812 1073.960938 728.71875 1068.683594 724.796875 C 1063.402344 720.871094 1060.386719 711.667969 1059.480469 711.367188 C 1058.574219 711.0625 1047.410156 713.78125 1045.75 709.855469 C 1044.089844 705.933594 1043.488281 702.464844 1043.488281 702.464844 C 1043.488281 702.464844 991.886719 698.089844 962.917969 659.613281 C 933.949219 621.136719 873.75 487.148438 955.675781 481.265625 C 996.867188 475.378906 1040.988281 532.417969 1037.710938 541.46875 C 1034.433594 550.523438 1083.621094 593.070312 1083.621094 593.070312 " fill-opacity="1" fill-rule="nonzero"/><path fill="#f9ab89" d="M 1115.605469 612.535156 C 1115.605469 612.535156 1253.960938 580.621094 1257.128906 577.679688 C 1260.296875 574.738281 1264.976562 544.9375 1266.183594 540.414062 C 1267.386719 535.882812 1299.074219 527.132812 1302.847656 529.398438 C 1306.613281 531.660156 1303.75 537.394531 1311.144531 540.414062 C 1318.535156 543.425781 1334.832031 557.460938 1336.039062 561.988281 C 1337.246094 566.515625 1338.148438 575.71875 1336.039062 577.828125 C 1333.921875 579.941406 1322.308594 579.792969 1322.308594 579.792969 C 1322.308594 579.792969 1303.449219 608.460938 1294.097656 604.539062 C 1266.332031 631.546875 1160.566406 732.339844 1140.050781 735.355469 C 1119.53125 738.375 1096.597656 725.398438 1093.578125 721.171875 C 1090.5625 716.949219 1087.542969 643.316406 1115.605469 612.535156 " fill-opacity="1" fill-rule="nonzero"/><path fill="#c0cecc" d="M 1083.621094 593.070312 C 1079.921875 594.65625 1040.320312 567.421875 1043.488281 702.464844 C 1043.488281 702.464844 1034.558594 701.101562 1034.273438 701.042969 C 1033.988281 700.984375 1032.851562 627.699219 1036.472656 621.816406 C 1031.492188 622.042969 1022.664062 641.734375 1015.652344 637.886719 C 1008.632812 634.035156 1018.617188 619.324219 1018.378906 617.0625 C 1018.140625 614.800781 1003.203125 643.996094 997.546875 633.359375 C 991.886719 622.71875 995.28125 586.125 997.546875 576.242188 C 999.808594 566.363281 974.6875 612.761719 973.328125 597.144531 C 971.972656 581.527344 999.808594 539.886719 1027.417969 550.070312 C 1055.03125 560.253906 1083.621094 593.070312 1083.621094 593.070312 " fill-opacity="1" fill-rule="nonzero"/><path fill="#f9ab89" d="M 1080.148438 574.8125 C 1077.921875 572.8125 1032.925781 522.457031 1011.199219 521.703125 C 995.207031 521.851562 978.308594 566.214844 977.855469 570.890625 C 977.402344 575.570312 981.324219 592.46875 984.492188 592.46875 C 987.660156 592.46875 1006.375 562.742188 1006.375 562.742188 C 1006.375 562.742188 989.773438 606.199219 1004.710938 616.308594 C 1011.5 617.0625 1026.4375 580.09375 1026.4375 580.09375 C 1026.4375 580.09375 1015.574219 607.558594 1019.949219 612.6875 C 1024.328125 617.820312 1044.089844 594.882812 1044.089844 594.882812 C 1044.089844 594.882812 1034.132812 615.855469 1037 618.421875 C 1039.863281 620.988281 1066.269531 609.820312 1066.269531 601.671875 C 1087.695312 605.140625 1090.558594 584.167969 1080.148438 574.8125 " fill-opacity="1" fill-rule="nonzero"/><path fill="#353638" d="M 1119.753906 474.699219 C 1119.753906 474.699219 1136.957031 486.015625 1137.863281 486.015625 C 1138.765625 486.015625 1137.863281 515.664062 1137.863281 515.664062 C 1137.863281 515.664062 1161.851562 546.449219 1162.980469 546.675781 C 1164.109375 546.898438 1169.542969 496.65625 1168.183594 493.710938 C 1166.828125 490.769531 1154.15625 478.769531 1154.15625 478.769531 C 1154.15625 478.769531 1155.96875 462.972656 1153.929688 459.101562 C 1151.894531 455.234375 1129.261719 441.429688 1119.753906 474.699219 " fill-opacity="1" fill-rule="nonzero"/><path fill="#e8f7f7" d="M 1033.753906 412.007812 C 1033.753906 412.007812 1130.160156 452.292969 1131.972656 452.070312 C 1133.785156 451.84375 1155.058594 411.558594 1156.414062 412.007812 C 1157.773438 412.460938 1184.476562 445.28125 1186.0625 445.960938 C 1187.644531 446.636719 1173.160156 479.285156 1172.488281 480.84375 C 1171.804688 482.398438 1137.40625 462.933594 1135.367188 464.519531 C 1133.332031 466.105469 1119.527344 505.484375 1117.941406 505.027344 C 1116.355469 504.578125 1005.917969 449.804688 1003.429688 447.996094 C 1000.9375 446.1875 1032.394531 416.082031 1033.753906 412.007812 " fill-opacity="1" fill-rule="nonzero"/></svg>