<svg xmlns="http://www.w3.org/2000/svg" xmlns:xlink="http://www.w3.org/1999/xlink" width="1920" zoomAndPan="magnify" viewBox="0 0 1440 809.999993" height="1080" preserveAspectRatio="xMidYMid meet" version="1.0"><path fill="#6e3b32" d="M 110.652344 205.738281 C 110.652344 205.738281 87.140625 146.554688 59.21875 184.050781 C 31.296875 221.546875 49.667969 260.375 69.140625 277.175781 C 88.609375 293.964844 118.371094 273.125 118.371094 273.125 L 110.652344 205.738281 " fill-opacity="1" fill-rule="nonzero"/><path fill="#542d26" d="M 112.71875 211.773438 C 110.925781 199.816406 104.761719 185.613281 90.804688 185.121094 C 72.175781 184.464844 63.359375 203.480469 61.082031 219.046875 C 59.101562 232.542969 59.316406 247.273438 63.230469 260.433594 C 67.789062 275.765625 82.46875 294.539062 99.660156 282.9375 C 100.519531 282.355469 99.175781 278.820312 99.222656 278.792969 C 90.835938 284.34375 81.296875 281.125 74.34375 274.558594 C 62.671875 263.535156 60.445312 246.273438 61.511719 231.003906 C 62.722656 213.671875 73.660156 183.789062 97.074219 192.121094 C 121.320312 200.753906 115.109375 257.613281 88.480469 260.546875 C 68.867188 262.710938 65.644531 231.882812 75.132812 219.867188 C 78.5625 215.519531 85.667969 210.878906 90.871094 216.082031 C 93.289062 220.574219 93.261719 224.835938 90.785156 228.871094 C 89.457031 230.84375 88.03125 231.734375 86.515625 231.632812 C 86.925781 230.140625 86.109375 225.414062 85.511719 225.535156 C 79.777344 226.671875 80.71875 237.695312 86.5 238.199219 C 95.425781 238.96875 95.367188 221.480469 93.722656 215.890625 C 88.34375 197.597656 71.78125 213.464844 69.375 224.878906 C 67.175781 235.304688 68.507812 249.417969 73.964844 258.738281 C 82.964844 274.109375 100.21875 265.398438 106.511719 252.652344 C 112.585938 240.347656 114.753906 225.332031 112.71875 211.773438 " fill-opacity="1" fill-rule="nonzero"/><path fill="#f79185" d="M 136.1875 323.375 C 136.1875 323.375 130.953125 340.746094 115.523438 353.148438 C 100.09375 365.558594 79.152344 382.925781 79.152344 383.753906 C 132.605469 408.566406 204.796875 395.882812 204.796875 395.882812 C 204.796875 395.882812 170.628906 373.832031 192.671875 349.292969 C 221.339844 353.855469 234.082031 354.042969 249.523438 347.359375 C 261.636719 342.125 298.527344 265.210938 256.175781 193.265625 C 220.136719 164.566406 126.820312 183.101562 116.898438 211.144531 C 106.980469 239.191406 143.351562 304.992188 136.1875 323.375 " fill-opacity="1" fill-rule="nonzero"/><path fill="#e7787c" d="M 198.882812 350.242188 C 161.242188 335.207031 159.609375 296.355469 159.609375 296.355469 C 159.609375 296.355469 151.894531 301.730469 151.4375 305.175781 C 149.859375 312.734375 150.707031 323.5625 152.9375 334.847656 C 148.652344 341.816406 148.214844 350.890625 148.171875 359.039062 C 148.105469 372.480469 150.839844 384.101562 160.242188 393.953125 C 161.082031 394.839844 164.632812 394.59375 164.703125 394.679688 C 154.3125 383.167969 151.480469 363.050781 155.703125 346.613281 C 161.824219 369.0625 172.039062 389.441406 178.207031 385.410156 C 181.871094 381.226562 185.167969 378.65625 187.777344 377.058594 C 184.0625 369.148438 183.5625 359.4375 192.671875 349.292969 C 194.839844 349.636719 196.890625 349.945312 198.882812 350.242188 " fill-opacity="1" fill-rule="nonzero"/><path fill="#d76267" d="M 173.226562 331.351562 C 170.214844 328.4375 167.121094 325.726562 164.851562 322.15625 C 163.226562 319.597656 155.804688 301.671875 158.800781 300.925781 C 159.25 300.808594 159.214844 299.34375 158.996094 298.019531 C 158.484375 298.351562 157.910156 298.609375 157.273438 298.78125 C 157.339844 299.734375 157.515625 300.6875 157.574219 301.460938 C 157.949219 306.1875 158.582031 310.925781 159.789062 315.515625 C 161.832031 323.292969 165.882812 332.855469 173.632812 336.382812 C 173.726562 336.425781 173.890625 331.996094 173.226562 331.351562 " fill-opacity="1" fill-rule="nonzero"/><path fill="#6e3b32" d="M 159.332031 261.339844 C 159.332031 261.339844 165.394531 258.03125 164.847656 250.035156 C 152.722656 227.152344 163.464844 210.058594 163.464844 210.058594 C 163.464844 210.058594 166.773438 212.816406 172.835938 212.816406 C 179.722656 201.238281 215.542969 190.207031 232.351562 194.34375 C 249.160156 198.476562 259.207031 198.703125 259.207031 198.703125 C 259.207031 198.703125 256.179688 157.46875 213.890625 145.082031 C 199.808594 140.957031 128.199219 152.160156 105.050781 198.753906 C 81.90625 245.347656 105.050781 259.136719 105.050781 259.136719 C 105.050781 259.136719 91.550781 280.363281 99.539062 297.453125 C 107.53125 314.546875 135.910156 311.246094 136.1875 323.375 C 152.996094 321.71875 159.609375 296.355469 159.609375 296.355469 C 159.609375 296.355469 137.566406 299.109375 136.738281 269.609375 C 135.910156 240.113281 160.984375 247.554688 159.332031 261.339844 " fill-opacity="1" fill-rule="nonzero"/><path fill="#6e3b32" d="M 226.3125 221.875 C 226.21875 219.882812 226.128906 217.066406 224.945312 215.335938 C 217.949219 205.113281 202.921875 216.058594 197.054688 222.09375 C 195.800781 223.378906 198.246094 229.390625 198.023438 229.578125 C 204.210938 224.335938 219.246094 217.898438 225.519531 225.753906 C 226.304688 226.738281 226.320312 222.078125 226.3125 221.875 " fill-opacity="1" fill-rule="nonzero"/><path fill="#6e3b32" d="M 270.273438 221.15625 C 269.839844 219.15625 269.25 217.105469 267.355469 216.039062 C 263.789062 214.015625 258.722656 215.722656 256.554688 218.929688 C 255.832031 220 256.347656 222.566406 256.5 223.707031 C 256.539062 224.015625 257.214844 227.636719 257.652344 227.355469 C 259.308594 226.300781 261.609375 226.464844 263.511719 226.292969 C 264.550781 226.203125 265.597656 226.128906 266.628906 226.308594 C 267.203125 226.414062 267.691406 226.5625 268.199219 226.855469 C 269.164062 227.414062 269.40625 228.417969 269.003906 226.066406 C 269.03125 226.242188 269.988281 230.386719 270.460938 229.410156 C 271.542969 227.15625 270.773438 223.464844 270.273438 221.15625 " fill-opacity="1" fill-rule="nonzero"/><path fill="#d76267" d="M 259.675781 280.351562 C 257.773438 278.527344 255.007812 277.285156 253.574219 274.980469 C 250.515625 270.042969 253.207031 264.46875 254.113281 259.539062 C 254.253906 258.804688 253.585938 255.550781 253.425781 256.183594 C 251.960938 262.046875 249.339844 267.085938 250.527344 273.253906 C 251.839844 280.039062 257.035156 282.460938 261.023438 286.757812 C 257.621094 291.992188 251.785156 296.46875 247.320312 300.050781 C 246.132812 301.003906 248.089844 305.792969 247.917969 305.929688 C 253.019531 301.832031 264.277344 294.261719 263.558594 286.636719 C 263.273438 283.617188 261.910156 282.484375 259.675781 280.351562 " fill-opacity="1" fill-rule="nonzero"/><path fill="#d76267" d="M 248.5 287.347656 C 247.617188 287.476562 246.730469 288.136719 245.863281 288.429688 C 244.941406 288.738281 244.007812 289.03125 243.058594 289.257812 C 242.238281 289.449219 242.851562 295.234375 243.6875 295.253906 C 245.554688 295.292969 247.957031 294.890625 249.296875 293.476562 C 249.855469 292.882812 249.292969 287.238281 248.5 287.347656 " fill-opacity="1" fill-rule="nonzero"/><path fill="#d76267" d="M 157.492188 282.089844 C 156.644531 280.835938 155.847656 280.386719 154.550781 279.726562 C 153.785156 279.332031 152.167969 279.011719 151.578125 278.34375 C 151.613281 278.285156 151.65625 278.046875 151.890625 277.429688 C 153.058594 274.375 154.878906 272.636719 154.933594 269.191406 C 155.019531 262.757812 151.917969 258.941406 145.355469 258.21875 C 145.089844 258.191406 145.011719 262.03125 145.773438 262.195312 C 147.917969 262.660156 152.035156 263.554688 152.8125 265.945312 C 153.238281 267.269531 152.929688 268.160156 152.398438 269.011719 C 152.214844 268.460938 151.949219 267.933594 151.503906 267.558594 C 149.8125 266.15625 146.921875 267.261719 145.1875 267.984375 C 144.492188 268.273438 145.222656 272.421875 145.644531 272.335938 C 146.535156 272.160156 148.835938 271.820312 150.484375 272.1875 C 149.765625 273.824219 149.441406 275.480469 149.496094 277.34375 C 149.550781 279.234375 149.738281 281.769531 150.828125 283.433594 C 152.425781 285.867188 155.769531 286.085938 157.820312 288.035156 C 157.921875 288.136719 158.234375 283.1875 157.492188 282.089844 " fill-opacity="1" fill-rule="nonzero"/><path fill="#292e47" d="M 223.253906 267.375 C 223.253906 270.554688 221.160156 273.132812 218.574219 273.132812 C 215.984375 273.132812 213.890625 270.554688 213.890625 267.375 C 213.890625 264.199219 215.984375 261.621094 218.574219 261.621094 C 221.160156 261.621094 223.253906 264.199219 223.253906 267.375 " fill-opacity="1" fill-rule="nonzero"/><path fill="#292e47" d="M 271.003906 271.414062 C 271.003906 274.59375 268.914062 277.171875 266.324219 277.171875 C 263.734375 277.171875 261.636719 274.59375 261.636719 271.414062 C 261.636719 268.234375 263.734375 265.660156 266.324219 265.660156 C 268.914062 265.660156 271.003906 268.234375 271.003906 271.414062 " fill-opacity="1" fill-rule="nonzero"/><path fill="#d76267" d="M 242.925781 323.332031 C 238.441406 314.152344 225.621094 314.988281 217.234375 317.101562 C 216.613281 317.261719 217.214844 321.167969 217.652344 321.097656 C 226.433594 319.632812 236.800781 319.488281 243.027344 326.804688 C 243.082031 326.878906 243.222656 323.9375 242.925781 323.332031 " fill-opacity="1" fill-rule="nonzero"/><path fill="#542d26" d="M 194.441406 188.132812 C 174.359375 174.011719 147.003906 175.238281 128.960938 192.230469 C 127.410156 193.6875 125.839844 195.371094 124.308594 197.195312 C 120.234375 193.539062 110.4375 199.109375 101.820312 205.71875 C 84.25 246.71875 105.03125 259.136719 105.03125 259.136719 C 105.03125 259.136719 91.527344 280.367188 99.519531 297.457031 C 106.652344 312.726562 130.035156 311.726562 135.15625 319.976562 C 131.394531 323.957031 124.148438 325.789062 120.269531 321.371094 C 119.757812 320.785156 119.777344 323.597656 119.785156 323.734375 C 119.835938 324.804688 119.832031 326.839844 120.617188 327.71875 C 123.640625 331.09375 127.996094 330.710938 131.632812 328.660156 C 130.375 330.171875 128.714844 331.296875 126.417969 331.683594 C 125.539062 331.832031 126.292969 337.996094 127.074219 337.902344 C 133.230469 337.179688 134.882812 330.351562 135.804688 325.203125 C 136.335938 324.574219 136.800781 323.90625 137.175781 323.226562 C 153.234375 320.679688 159.589844 296.359375 159.589844 296.359375 C 159.589844 296.359375 137.542969 299.113281 136.71875 269.609375 C 135.890625 240.113281 160.964844 247.554688 159.308594 261.339844 C 159.308594 261.339844 165.371094 258.03125 164.820312 250.039062 C 159.558594 240.105469 158.609375 231.269531 159.214844 224.445312 C 143.050781 218.746094 124.039062 223.421875 126.0625 206.105469 C 126.226562 204.714844 126.265625 203.503906 126.214844 202.433594 C 131.9375 195.859375 139.171875 190.738281 147.367188 187.746094 C 163.429688 181.875 180.292969 184.605469 194.835938 192.976562 C 194.644531 192.863281 195.402344 188.804688 194.441406 188.132812 " fill-opacity="1" fill-rule="nonzero"/><path fill="#542d26" d="M 177.949219 153.164062 C 177.472656 153.164062 177.015625 153.207031 176.546875 153.222656 C 185.828125 146.773438 197.339844 144.378906 208.574219 148.378906 C 223.410156 153.664062 230.992188 167.808594 236.019531 181.996094 C 221.519531 164.375 201.382812 153.15625 177.949219 153.164062 Z M 239.417969 186.707031 C 234.652344 170.796875 228.542969 153.199219 213.324219 144.382812 C 198.792969 135.960938 179.578125 139.910156 169.09375 152.824219 C 168.914062 153.035156 168.859375 153.425781 168.851562 153.871094 C 158.558594 155.410156 149.0625 159.390625 139.765625 164.621094 C 130.238281 169.988281 120.441406 175.265625 114.792969 184.960938 C 114.242188 185.90625 115.453125 189.03125 115.429688 189.074219 C 121.8125 179.054688 133.355469 173.101562 143.597656 167.65625 C 154.523438 161.84375 166.03125 158.246094 178.496094 158.386719 C 203.132812 158.667969 225.109375 172.859375 239.417969 192.238281 C 239.585938 192.464844 239.664062 187.535156 239.417969 186.707031 " fill-opacity="1" fill-rule="nonzero"/><path fill="#6e3b32" d="M 256.507812 165.332031 C 255.328125 161.425781 253.019531 159.730469 249.378906 158.210938 C 244.800781 156.296875 236.324219 153.492188 231.425781 154.972656 C 231.152344 155.058594 231.125 155.820312 231.117188 155.960938 C 231.105469 156.160156 231.097656 156.351562 231.089844 156.550781 C 231.0625 157.105469 231.167969 161.878906 232.027344 161.742188 L 232.347656 161.691406 C 232.539062 161.664062 232.632812 161.398438 232.683594 161.046875 C 234.972656 160.515625 246.367188 163.449219 247.707031 163.914062 C 254.105469 166.121094 255.527344 167.019531 256.988281 175.421875 C 258.050781 181.519531 257.636719 188.160156 257.359375 194.3125 C 257.328125 194.945312 258.039062 199.089844 258.222656 197.285156 C 259.253906 187.132812 259.496094 175.210938 256.507812 165.332031 " fill-opacity="1" fill-rule="nonzero"/><path fill="#f79185" d="M 418.339844 512.691406 C 418.339844 512.691406 431.75 491.554688 445.34375 487.507812 C 458.9375 483.46875 469.226562 487.507812 486.863281 486.042969 C 504.496094 484.570312 509.859375 481.261719 510.027344 484.015625 C 507.070312 493.761719 484.472656 494.773438 484.289062 496.476562 C 484.105469 498.171875 549.316406 511.585938 546.375 516.734375 C 543.4375 521.878906 487.59375 507.730469 487.414062 512.691406 C 487.230469 517.65625 552.808594 522.984375 543.621094 530.15625 C 534.433594 537.320312 484.019531 524.820312 482.410156 528.683594 C 480.796875 532.539062 514.230469 532.914062 522.679688 533.28125 C 531.132812 533.644531 534.988281 536.769531 520.839844 539.894531 C 506.703125 543.019531 477.859375 536.953125 478.777344 541.917969 C 479.695312 546.878906 513.128906 554.050781 508.71875 558.648438 C 504.3125 563.238281 476.578125 551.84375 471.984375 551.476562 C 444.242188 554.78125 427.898438 540.445312 421.832031 541.367188 C 415.773438 542.285156 418.890625 547.980469 406.039062 550.371094 C 393.179688 552.761719 279.472656 643.5625 271.203125 642.457031 C 260.363281 599.816406 275.613281 565.628906 275.613281 565.628906 C 275.613281 565.628906 385.277344 534.011719 418.339844 512.691406 " fill-opacity="1" fill-rule="nonzero"/><path fill="#e7787c" d="M 341.085938 544.988281 C 306.894531 556.632812 275.609375 565.660156 275.609375 565.660156 C 275.609375 565.660156 260.367188 599.84375 271.203125 642.488281 C 273.355469 642.773438 282.640625 636.835938 295.433594 627.863281 C 304.558594 595.285156 325.652344 563.792969 341.085938 544.988281 " fill-opacity="1" fill-rule="nonzero"/><path fill="#292e47" d="M 137.015625 688.960938 C 137.015625 688.960938 93.753906 715.980469 66.566406 779.210938 C 39.378906 842.4375 51.871094 914.488281 20.277344 957.132812 C 123.878906 995.363281 223.84375 938.015625 285.550781 957.132812 C 304.632812 818.175781 299.675781 686.019531 272.027344 683.722656 C 244.386719 681.425781 137.015625 688.960938 137.015625 688.960938 " fill-opacity="1" fill-rule="nonzero"/><path fill="#202437" d="M 284.878906 697.144531 C 281.355469 688.851562 277.074219 684.105469 272.039062 683.6875 C 244.394531 681.394531 137.023438 688.929688 137.023438 688.929688 C 137.023438 688.929688 93.765625 715.949219 66.578125 779.175781 C 58.660156 797.59375 54.117188 816.761719 50.859375 835.734375 C 80.726562 776.367188 121.097656 735.6875 186.34375 738.003906 C 239.671875 739.894531 270.671875 713.742188 284.878906 697.144531 " fill-opacity="1" fill-rule="nonzero"/><path fill="#1a1d2c" d="M 172.554688 688.992188 C 170.964844 702.996094 161.671875 711.789062 151.699219 720.785156 C 140.808594 730.605469 133.117188 741.460938 127.246094 754.902344 C 114.953125 783.019531 105.847656 813.019531 98.890625 842.871094 C 89.390625 883.65625 83.671875 927.269531 84.582031 970.148438 C 86.714844 970.265625 88.84375 970.363281 90.964844 970.4375 C 90.601562 959.214844 90.589844 947.964844 91.128906 936.621094 C 92.605469 905.445312 97 874.457031 103.851562 844.019531 C 110.578125 814.132812 119.203125 784 131.476562 755.878906 C 137.066406 743.074219 144.210938 732.480469 154.480469 722.996094 C 164.542969 713.703125 175.449219 704.511719 176.34375 689.871094 C 176.386719 689.214844 172.597656 688.621094 172.554688 688.992188 " fill-opacity="1" fill-rule="nonzero"/><path fill="#d7bcb6" d="M 139.492188 664.144531 C 139.492188 664.144531 140.597656 681.519531 137.015625 688.960938 C 205.621094 705.503906 272.027344 683.722656 272.027344 683.722656 L 269.824219 656.976562 L 139.492188 664.144531 " fill-opacity="1" fill-rule="nonzero"/><path fill="#f46f3d" d="M 276.574219 675.367188 C 276.574219 682.996094 271.207031 689.179688 264.589844 689.179688 C 257.96875 689.179688 252.601562 682.996094 252.601562 675.367188 C 252.601562 667.738281 257.96875 661.554688 264.589844 661.554688 C 271.207031 661.554688 276.574219 667.738281 276.574219 675.367188 " fill-opacity="1" fill-rule="nonzero"/><path fill="#d7bcb6" d="M 272.75 675.367188 C 272.75 680.039062 269.539062 683.828125 265.570312 683.828125 C 261.601562 683.828125 258.390625 680.039062 258.390625 675.367188 C 258.390625 670.695312 261.601562 666.90625 265.570312 666.90625 C 269.539062 666.90625 272.75 670.695312 272.75 675.367188 " fill-opacity="1" fill-rule="nonzero"/><path fill="#292e47" d="M 77.222656 377.046875 C 77.222656 377.046875 155.109375 403.878906 203.96875 390.644531 C 217.5625 392.113281 248.511719 412.332031 255.261719 452.773438 C 250.261719 460.128906 239.976562 462.601562 239.976562 462.601562 C 239.976562 462.601562 268.632812 499.527344 280.757812 511.4375 C 292.882812 523.355469 278.183594 577.398438 278.183594 610.113281 C 278.183594 642.824219 287.738281 650.769531 283.324219 659.664062 C 278.921875 668.558594 143.71875 677.75 135.636719 670.398438 C 127.554688 663.046875 132.699219 650.914062 132.699219 650.914062 C 132.699219 650.914062 32.035156 453.246094 25.417969 434.996094 C 18.808594 416.75 67.695312 377.246094 77.222656 377.046875 " fill-opacity="1" fill-rule="nonzero"/><path fill="#202437" d="M 224.167969 410.375 C 215.199219 421.300781 195.191406 420.5 182.570312 419.917969 C 163.296875 419.03125 142.984375 417.585938 124.878906 410.597656 C 124.113281 410.304688 119.074219 409.621094 121.085938 410.414062 C 138.585938 417.324219 157.925781 424.785156 176.554688 426.304688 C 186.601562 427.128906 199.96875 427.414062 210.03125 426.304688 C 217.085938 425.53125 226.640625 419.496094 228.621094 411.398438 C 228.753906 410.847656 224.628906 409.816406 224.167969 410.375 " fill-opacity="1" fill-rule="nonzero"/><path fill="#202437" d="M 220.683594 546.96875 C 220.101562 516.644531 143.835938 470.878906 143.835938 470.878906 L 81.566406 480.527344 C 81.566406 480.527344 63.929688 487.144531 60.074219 484.941406 C 58.496094 482.570312 37.269531 451.070312 24.804688 432.117188 C 24.871094 433.121094 25.027344 434.09375 25.355469 435 C 31.96875 453.246094 132.632812 650.910156 132.632812 650.910156 C 132.632812 650.910156 129.167969 659.121094 132.433594 666.128906 C 137.25 653.335938 155.113281 651.742188 155.113281 651.742188 C 155.113281 651.742188 199.496094 664.695312 206.386719 653.121094 C 213.273438 641.542969 278.851562 595.472656 278.851562 595.472656 L 278.859375 595.441406 C 279.816406 584.527344 281.523438 572.558594 282.96875 561.085938 C 271.148438 563.804688 221.195312 573.710938 220.683594 546.96875 " fill-opacity="1" fill-rule="nonzero"/><path fill="#292e47" d="M 172.902344 670.425781 C 172.996094 669.75 168.6875 668.960938 168.621094 669.4375 C 167.375 678.195312 162.351562 686.824219 166.152344 695.605469 C 166.636719 696.71875 170.324219 696.339844 170.429688 696.589844 C 166.628906 687.808594 171.652344 679.183594 172.902344 670.425781 " fill-opacity="1" fill-rule="nonzero"/><path fill="#1a1d2c" d="M 222.988281 605.90625 C 224.523438 577.84375 227.835938 549.246094 227.125 521.148438 C 226.5 496.242188 214.488281 481.929688 196.445312 466.277344 C 177.40625 449.753906 165.828125 429.980469 154.035156 408.066406 C 169.152344 407.9375 185.8125 406.292969 200.835938 401.453125 C 205.621094 406.65625 208.097656 419.765625 211.042969 425.496094 C 215.898438 434.953125 222.074219 443.691406 229.113281 451.636719 C 232.742188 455.738281 236.625 459.632812 240.6875 463.34375 C 240.320312 462.867188 240.097656 462.585938 240.097656 462.585938 C 240.097656 462.585938 241.324219 462.285156 243.117188 461.605469 C 240.800781 459.445312 238.53125 457.246094 236.347656 454.929688 C 237.464844 455.273438 238.578125 455.53125 239.121094 455.417969 C 243.976562 454.40625 249.585938 452.804688 254.972656 450.554688 C 254.660156 448.941406 254.324219 447.355469 253.941406 445.808594 C 253.132812 446.292969 252.34375 446.800781 251.492188 447.238281 C 247.769531 449.148438 243.914062 450.628906 239.964844 451.863281 C 238.023438 452.042969 236.390625 452.421875 234.621094 453.125 C 232.539062 450.839844 230.511719 448.496094 228.578125 446.050781 C 221.632812 437.285156 215.753906 427.652344 211.445312 417.316406 C 209.082031 411.65625 208.328125 404.132812 202.96875 400.730469 C 207.59375 399.132812 212.035156 397.203125 216.214844 394.917969 C 214.019531 393.730469 211.910156 392.78125 209.957031 392.082031 C 195.753906 400.277344 179.546875 404.421875 161.578125 405.78125 C 129.320312 408.210938 94.195312 403.332031 72.234375 378.777344 C 71.554688 379.121094 70.832031 379.511719 70.078125 379.941406 C 88.015625 399.515625 115.75 406.777344 142.03125 407.871094 C 144.785156 407.988281 147.640625 408.050781 150.558594 408.070312 C 160.914062 429.257812 172.695312 448.679688 190.601562 464.371094 C 198.632812 471.421875 207.347656 478.265625 213.210938 487.355469 C 220.976562 499.410156 222.046875 513.488281 221.585938 527.449219 C 220.671875 555.179688 218.398438 582.890625 216.910156 610.59375 C 215.84375 630.496094 215.230469 651.980469 224.21875 670.082031 C 225.960938 669.933594 227.695312 669.777344 229.414062 669.621094 C 220.777344 649.617188 221.800781 627.789062 222.988281 605.90625 " fill-opacity="1" fill-rule="nonzero"/><path fill="#f79185" d="M 148.171875 458.320312 L 202.867188 557.910156 C 266.058594 527.398438 350.921875 476.300781 353.128906 474.828125 C 355.335938 473.359375 360.84375 453.695312 373.519531 448.359375 C 386.191406 443.035156 429.363281 434.027344 437.261719 426.308594 C 443.328125 438.4375 417.976562 446.160156 418.160156 448.359375 C 453.976562 448.730469 505.410156 451.488281 509.269531 454.613281 C 513.128906 457.734375 509.269531 461.230469 509.269531 461.230469 C 509.269531 461.230469 515.332031 464.355469 515.332031 466.558594 C 514.78125 470.050781 499.902344 466.007812 468.671875 471.886719 C 437.445312 477.769531 374.804688 495.414062 364.335938 495.234375 C 348.722656 505.894531 211.6875 648.339844 175.683594 646.136719 C 128.285156 577.761719 66.566406 482.550781 66.566406 482.550781 C 66.566406 482.550781 96.78125 457.984375 148.171875 458.320312 " fill-opacity="1" fill-rule="nonzero"/><path fill="#d76267" d="M 509.269531 461.230469 L 508.441406 462.148438 C 508.441406 462.148438 460.039062 462.148438 441.855469 464.355469 C 455.632812 465.457031 456.367188 468.304688 456.367188 468.304688 C 456.367188 468.304688 495.582031 462.976562 507.707031 463.433594 C 508.996094 463.0625 510.023438 461.640625 510.023438 461.640625 L 509.269531 461.230469 " fill-opacity="1" fill-rule="nonzero"/><path fill="#e7787c" d="M 225.441406 546.628906 C 217.738281 550.589844 210.15625 554.386719 202.871094 557.910156 L 177.34375 511.441406 C 174.617188 522.519531 171.449219 547.136719 184.5 579.78125 C 186.15625 578.125 209 559.691406 225.441406 546.628906 " fill-opacity="1" fill-rule="nonzero"/><path fill="#e7787c" d="M 434.0625 479.628906 C 414.429688 466.050781 391.210938 481.097656 361.03125 481.351562 C 357.964844 485.074219 347.148438 503.722656 338.210938 518.984375 C 351.3125 506.558594 360.851562 497.613281 364.335938 495.234375 C 371.640625 495.359375 404.347656 486.804688 434.0625 479.628906 " fill-opacity="1" fill-rule="nonzero"/><path fill="#1a1d2c" d="M 152.011719 445.441406 C 134.511719 442.484375 116.394531 448.347656 99.570312 452.824219 C 84.601562 456.800781 62.570312 462.316406 56.023438 478.28125 C 55.867188 478.667969 59.699219 479.769531 60.203125 479.246094 C 71.195312 467.886719 82.0625 461.378906 97.234375 456.886719 C 114.046875 451.894531 135.992188 444.050781 153.445312 446.929688 C 157.90625 447.664062 154.238281 445.816406 152.011719 445.441406 " fill-opacity="1" fill-rule="nonzero"/><path fill="#202437" d="M 278.167969 798.9375 C 246.734375 812.757812 227.476562 844.851562 210.277344 872.878906 C 210.179688 873.039062 215.261719 875.265625 215.933594 874.183594 C 234.292969 844.574219 252.910156 818.203125 283.640625 800.492188 C 283.703125 800.453125 279.457031 798.375 278.167969 798.9375 " fill-opacity="1" fill-rule="nonzero"/><path fill="#e7787c" d="M 478.570312 500.148438 C 478.585938 500.132812 478.488281 500.082031 478.351562 500.015625 C 478.828125 499.820312 479.289062 499.601562 479.769531 499.417969 C 479.640625 499.464844 476.757812 497.890625 475.644531 498.246094 C 461.695312 502.722656 450.46875 510.761719 439.042969 519.695312 C 438.773438 519.90625 439.003906 520.058594 439.261719 520.210938 C 447.578125 525.089844 455.539062 530.246094 458.152344 540.039062 C 458.582031 541.636719 464.554688 541.421875 464.578125 541.523438 C 463.269531 536.617188 460.871094 532.6875 457.121094 529.230469 C 453.804688 526.164062 445.355469 523.269531 448.457031 518.84375 C 450.941406 515.296875 456.980469 511.96875 461.292969 509.332031 C 460.578125 510.902344 460.308594 512.765625 460.675781 515.046875 C 461.414062 519.667969 462.902344 524.023438 464.054688 528.511719 C 464.386719 531.011719 464.863281 533.511719 465.441406 535.980469 C 465.746094 537.304688 471.570312 537.589844 471.542969 537.386719 C 471.28125 535.195312 470.824219 533.101562 470.292969 531.042969 C 469.4375 525.722656 469.109375 520.28125 469.761719 514.957031 C 470.503906 508.859375 474.847656 504.765625 478.570312 500.148438 " fill-opacity="1" fill-rule="nonzero"/><path fill="#292e47" d="M 838.15625 629.816406 C 838.15625 629.816406 902.058594 695.273438 918.691406 756.097656 C 935.328125 816.925781 906.902344 922.710938 914.171875 955.109375 C 764.121094 995.4375 732.675781 949.820312 688.90625 963.042969 C 645.140625 976.265625 604.15625 953.125 604.15625 953.125 C 604.15625 953.125 642.496094 862.546875 645.140625 814.941406 C 647.78125 767.335938 649.414062 750.292969 652.410156 724.191406 C 655.40625 698.09375 685.460938 626.507812 838.15625 629.816406 " fill-opacity="1" fill-rule="nonzero"/><path fill="#202437" d="M 640.097656 849.617188 C 670.867188 860.785156 702.019531 861.160156 731.898438 846.4375 C 745.171875 839.894531 757.125 831.140625 767.722656 820.921875 C 730.683594 841.523438 675.867188 845.023438 641.582031 839.074219 C 643.382812 830.300781 644.617188 822.054688 645.019531 814.800781 C 647.664062 767.195312 649.292969 750.152344 652.289062 724.050781 C 654 709.15625 664.535156 679.453125 701.636719 657.304688 L 785.074219 631.859375 C 800.84375 630.070312 818.421875 629.25 838.035156 629.675781 C 838.035156 629.675781 848.125 640.023438 861.320312 656.277344 C 857.148438 660.542969 852.820312 665.3125 848.503906 670.570312 C 879.703125 694.472656 896.992188 732.703125 902.40625 771.082031 C 910.863281 831.039062 892.445312 890.089844 890.105469 949.753906 C 890.074219 950.542969 888.410156 948.253906 888.421875 947.566406 C 889.25 897.242188 902.625 848.019531 901.734375 797.535156 C 900.90625 750.5 886.746094 701.066406 846.726562 672.765625 C 828.371094 695.714844 810.636719 727.535156 806.636719 767.527344 C 804.859375 785.296875 796.191406 799.332031 783.40625 810.1875 C 770.285156 827.21875 754.207031 841.824219 734.714844 851.515625 C 706.816406 865.378906 669.980469 869.246094 641.941406 853.585938 C 641.082031 853.105469 639.609375 849.441406 640.097656 849.617188 " fill-opacity="1" fill-rule="nonzero"/><path fill="#e7787c" d="M 570.527344 551.964844 C 570.527344 551.964844 423.710938 441.449219 418.835938 437.859375 C 413.960938 434.273438 385.507812 415.097656 379.9375 413.320312 C 374.363281 411.539062 359.261719 418.734375 343.351562 418.875 C 327.4375 419.019531 321.496094 418.46875 321.578125 421.027344 C 321.65625 423.589844 344.105469 431.183594 355.621094 428.863281 C 367.132812 426.542969 348.980469 434.769531 331.53125 442.757812 C 314.082031 450.746094 286.003906 485.359375 290.875 488.160156 C 295.746094 490.964844 322.832031 461.925781 333.949219 459.214844 C 338.726562 458.644531 300.609375 492.199219 303.082031 501.832031 C 305.527344 506.761719 329.265625 483.304688 341.375 473.453125 C 349.902344 469.261719 313.746094 503.203125 318.46875 508.671875 C 323.195312 514.140625 348.929688 481.109375 350.832031 485.960938 C 352.730469 490.8125 332.4375 512.066406 336.761719 515.574219 C 341.089844 519.089844 358.570312 500.355469 362.324219 497.519531 C 366.074219 494.679688 407.378906 476.015625 411.148438 476.3125 C 414.917969 476.609375 521.914062 597.585938 521.914062 597.585938 L 570.527344 551.964844 " fill-opacity="1" fill-rule="nonzero"/><path fill="#e04475" d="M 773.539062 689.320312 C 774.648438 692.253906 720.992188 737.917969 656.542969 720.066406 C 662.984375 693.78125 660.507812 668.988281 660.507812 668.988281 C 660.507812 668.988281 749.742188 626.34375 773.539062 689.320312 " fill-opacity="1" fill-rule="nonzero"/><path fill="#e04475" d="M 743.464844 370.804688 L 737.648438 370.199219 L 616.054688 401.050781 L 606.71875 403.695312 C 606.71875 403.695312 563.832031 502.539062 622.664062 535.601562 C 681.496094 568.65625 743.464844 370.804688 743.464844 370.804688 " fill-opacity="1" fill-rule="nonzero"/><path fill="#917579" d="M 544.664062 538.574219 C 514.75 557.171875 506.984375 582.210938 507.316406 584.527344 C 507.644531 586.839844 551.273438 629.816406 568.789062 629.816406 C 586.308594 629.816406 604.15625 611.304688 604.15625 611.304688 L 544.664062 538.574219 " fill-opacity="1" fill-rule="nonzero"/><path fill="#6d5458" d="M 593.269531 620.402344 C 593.269531 620.402344 592.925781 621.699219 586.324219 624.699219 C 531.359375 596.34375 523.9375 555.613281 523.9375 555.613281 L 593.269531 620.402344 " fill-opacity="1" fill-rule="nonzero"/><path fill="#a8888b" d="M 742.308594 370.199219 C 742.308594 370.199219 725.949219 382.375 717.835938 408.140625 C 713.925781 420.578125 688.699219 474.5 669.925781 484.675781 C 651.152344 494.851562 643.652344 496.175781 630.019531 497.664062 C 626.546875 498.65625 619.113281 517.003906 619.113281 517.003906 C 619.113281 517.003906 617.871094 497.167969 617.125 494.9375 C 597.792969 482.292969 599.773438 426.507812 606.71875 403.695312 C 600.765625 405.929688 586.390625 405.679688 578.707031 418.324219 C 571.023438 430.972656 554.984375 531.300781 552.023438 541.820312 C 549.054688 552.347656 602.007812 610.972656 602.007812 610.972656 C 602.007812 610.972656 650.097656 669.488281 655.550781 683.867188 C 661.003906 698.246094 639.683594 729.484375 651.582031 749.820312 C 661.003906 717.585938 677.855469 717.089844 674.390625 692.296875 C 712.066406 741.882812 750.734375 739.902344 756.1875 742.378906 C 835.511719 711.140625 847.90625 636.761719 847.90625 636.761719 C 847.90625 636.761719 794.339844 559.898438 791.378906 529.152344 C 788.414062 498.410156 799.320312 440.394531 787.421875 406.175781 C 775.527344 371.964844 742.308594 370.199219 742.308594 370.199219 " fill-opacity="1" fill-rule="nonzero"/><path fill="#917579" d="M 784.449219 473.613281 C 784.449219 473.613281 788.582031 508.953125 743.464844 575.519531 C 698.351562 642.082031 629.5 645.625 629.5 645.625 L 593.269531 600.203125 L 784.449219 473.613281 " fill-opacity="1" fill-rule="nonzero"/><path fill="#6d5458" d="M 566.148438 513.78125 L 567.632812 512.625 C 567.632812 512.625 575.460938 518.257812 584.164062 523.640625 C 584.164062 523.625 584.15625 523.601562 584.15625 523.582031 C 584.394531 504.40625 583.492188 485.753906 581.957031 466.652344 C 581.851562 465.386719 584.617188 469.265625 584.78125 470.320312 C 587.585938 488.324219 588.285156 507.160156 587.019531 525.371094 C 594.25 529.691406 601.574219 533.414062 605.144531 533.285156 C 607.699219 532.945312 611.707031 530.179688 616.253906 526.292969 C 617.101562 522.609375 617.992188 518.738281 619.328125 515.214844 C 619.480469 514.804688 621.0625 517.039062 620.945312 517.699219 C 620.617188 519.535156 620.183594 521.390625 619.695312 523.230469 C 632.085938 511.835938 646.609375 494.84375 647.144531 494.691406 C 647.9375 494.457031 655.714844 492.457031 658.523438 490.144531 L 788.203125 461.863281 C 788.203125 461.863281 785.605469 486.671875 748.585938 526.011719 C 720.179688 556.203125 666.621094 590.714844 633.175781 608.855469 C 642.433594 617.90625 648.109375 629.632812 652.796875 641.628906 C 657.382812 653.355469 661.726562 664.734375 668.199219 675.617188 C 671.644531 681.40625 674.703125 687.003906 676.304688 693.582031 C 676.679688 695.136719 674.71875 692.332031 674.546875 691.738281 C 670.792969 678.695312 661.3125 667.136719 656.15625 654.46875 C 649.75 638.734375 644.9375 622.78125 632.277344 610.699219 C 632.101562 610.535156 631.878906 610.148438 631.660156 609.683594 C 622.207031 614.757812 614.472656 618.460938 609.554688 620.277344 C 586.636719 591.136719 582.34375 588.492188 582.34375 588.492188 L 558.136719 510.191406 L 566.148438 513.78125 " fill-opacity="1" fill-rule="nonzero"/><path fill="#f79185" d="M 707.109375 341.878906 C 707.109375 341.878906 724.566406 367.445312 737.648438 370.199219 C 703.308594 387.5 682.484375 473.449219 644.148438 482.707031 C 605.808594 491.960938 605.476562 441.382812 616.054688 401.050781 C 641.5 387.828125 649.765625 382.539062 648.441406 365.347656 C 647.121094 348.160156 631.65625 341.878906 631.65625 341.878906 C 631.65625 341.878906 583.148438 353.117188 568.039062 338.902344 C 552.925781 324.6875 551.273438 289.445312 551.273438 289.445312 C 551.273438 289.445312 541.691406 281.878906 539.707031 276.089844 C 537.722656 270.308594 552.597656 257.6875 552.597656 257.6875 C 552.597656 257.6875 554.382812 220.3125 564.4375 193.488281 C 574.492188 166.667969 641.171875 170.390625 641.171875 170.390625 L 707.109375 341.878906 " fill-opacity="1" fill-rule="nonzero"/><path fill="#e7787c" d="M 649.753906 289.453125 C 666.429688 276.824219 682.382812 290.046875 690.941406 299.890625 L 696.457031 314.234375 C 692.792969 333.726562 677.722656 395.925781 635.464844 390.117188 C 645.78125 383.214844 649.320312 377.027344 648.421875 365.359375 C 647.101562 348.167969 631.636719 341.886719 631.636719 341.886719 C 631.636719 341.886719 600.882812 349.003906 580.71875 344.722656 C 603.148438 339.617188 639.109375 325.980469 649.753906 289.453125 " fill-opacity="1" fill-rule="nonzero"/><path fill="#6e3b32" d="M 579.695312 160.71875 C 610.929688 135.925781 697.195312 161.710938 702.152344 179.066406 C 707.109375 196.417969 727.929688 191.960938 734.871094 211.792969 C 741.8125 231.628906 740.328125 274.769531 746.769531 290.636719 C 748.742188 295.496094 751.414062 299.703125 753.828125 303.519531 C 757.648438 306.015625 761.296875 311.007812 763.296875 313.757812 C 765.898438 317.328125 768.566406 322.40625 767.679688 326.996094 C 765.777344 336.871094 749.746094 336.859375 757.066406 348.40625 C 759.46875 352.203125 762.355469 354.703125 762.621094 359.492188 C 762.695312 360.855469 759.847656 356.746094 759.6875 355.6875 C 758.753906 349.597656 750.492188 346.660156 750.742188 339.585938 C 750.917969 334.652344 755.179688 332.53125 758.632812 329.96875 C 761.15625 328.101562 764.09375 326.035156 764.738281 322.65625 C 765.351562 319.453125 761.835938 314.070312 757.789062 310.203125 C 760.636719 315.839844 761.199219 320.839844 755.195312 326.339844 C 743.296875 337.25 745.285156 350.144531 747.761719 356.09375 C 726.941406 362.542969 729.417969 349.148438 718.511719 361.546875 C 707.605469 373.945312 698.679688 376.921875 682.320312 343.695312 C 669.925781 355.101562 663.976562 344.691406 663.976562 344.691406 C 663.976562 344.691406 650.097656 365.019531 636.707031 348.652344 C 638.566406 343.359375 635.601562 337.066406 631.769531 329.792969 C 633.65625 336.542969 633.402344 343.042969 626.273438 348.316406 C 625.570312 348.835938 622.5 344.117188 623.484375 343.289062 C 625.863281 341.296875 627.285156 340.0625 628.800781 337.347656 C 632.675781 330.410156 627.320312 323.089844 624.242188 316.523438 C 623.101562 314.085938 621.789062 311.667969 621.121094 309.03125 C 620.089844 304.964844 620.449219 301.277344 622.046875 298.121094 C 624.285156 287.472656 633.328125 279.511719 630.265625 265.347656 C 626.300781 247.003906 608.453125 247.496094 608.453125 227.660156 C 608.453125 207.828125 618.863281 197.910156 597.050781 187.496094 C 575.234375 177.082031 564.824219 193.445312 564.824219 193.445312 C 558.382812 185.015625 541.027344 162.207031 579.695312 160.71875 " fill-opacity="1" fill-rule="nonzero"/><path fill="#542d26" d="M 570.019531 161.8125 C 572.753906 161.308594 575.941406 160.96875 579.652344 160.824219 C 600.242188 144.480469 644.75 150.117188 674.109375 160.828125 C 640.582031 157.667969 617.699219 161.074219 602.09375 166.839844 C 615.886719 167.257812 628.921875 174.144531 634.53125 188.496094 C 636.484375 193.484375 636.578125 197.957031 635.59375 203.121094 C 635.3125 204.578125 635.035156 206.011719 634.773438 207.433594 C 638.464844 209.464844 642.402344 212.804688 646.578125 217.847656 C 649.113281 220.910156 651.9375 223.429688 654.957031 225.527344 C 655.757812 224.191406 656.699219 222.890625 657.730469 221.546875 C 659.34375 219.449219 661.742188 217.40625 662.75 214.902344 C 664.519531 210.511719 661.390625 202.261719 659.589844 198.144531 C 657.160156 192.605469 648.703125 177.789062 641.394531 179.175781 C 640.667969 179.316406 639.425781 176.511719 639.847656 176.386719 C 648.078125 173.882812 653.378906 185.964844 656.941406 191.648438 C 660.859375 197.894531 666.597656 205.871094 666.421875 213.664062 C 666.3125 218.46875 663.792969 221.550781 661.117188 225.253906 C 660.324219 226.355469 659.648438 227.265625 659.066406 228.070312 C 663.214844 230.292969 667.675781 231.789062 672.308594 232.726562 C 668.816406 221.59375 682.503906 215.484375 681.1875 204.496094 C 681.09375 203.710938 682.90625 206.179688 683.027344 206.886719 C 684 212.492188 681.902344 216.1875 678.984375 220.808594 C 675.933594 225.636719 673.398438 228.59375 674.800781 233.171875 C 696.871094 236.640625 722.328125 227.960938 737.296875 221.535156 C 741.496094 243.351562 741.1875 277.109375 746.726562 290.742188 C 747.921875 293.695312 749.378906 296.40625 750.878906 298.9375 C 729.863281 311.105469 714.28125 309.472656 701.199219 303.484375 C 700.621094 304.113281 699.847656 304.6875 698.851562 305.355469 C 692.152344 309.816406 690.277344 315.6875 695.921875 322.558594 C 700.699219 328.375 705.324219 326.945312 711.402344 330.289062 C 713.207031 331.28125 714.734375 332.453125 716.003906 334.070312 C 719.285156 338.257812 719.625 343.199219 716.859375 347.707031 C 716.578125 348.164062 714.738281 345.6875 715.105469 345.019531 C 722.425781 331.800781 702.167969 332.492188 696.453125 328.171875 C 693.410156 325.871094 691.527344 322.226562 690.585938 318.601562 C 689.445312 314.195312 688.703125 307.335938 691.75 303.492188 C 692.730469 302.246094 694.148438 301.953125 695.167969 300.910156 C 695.339844 300.832031 695.488281 300.722656 695.652344 300.636719 C 683.140625 293.523438 672.738281 283.375 661.449219 279.832031 C 660.949219 279.675781 660.449219 279.570312 659.949219 279.445312 C 659.066406 282.011719 657.886719 284.492188 656.601562 286.898438 C 655.441406 289.066406 652.160156 292.855469 651.675781 295.335938 C 650.578125 300.910156 654.695312 307.429688 658.265625 311.074219 C 663.207031 316.125 668.375 317.96875 674.457031 320.785156 C 675.832031 321.421875 677.089844 321.945312 678.144531 323.117188 C 680.347656 325.554688 680.96875 328.605469 678.554688 330.863281 C 678.246094 331.160156 676.222656 328.378906 676.835938 327.761719 C 679.394531 325.199219 668.582031 322.019531 667.679688 321.546875 C 665.042969 320.164062 662.726562 318.234375 660.578125 316.195312 C 656.738281 312.546875 652.996094 308.183594 650.445312 303.527344 C 645.410156 294.335938 650.992188 286.734375 655.082031 278.75 C 643.960938 278.261719 632.773438 284.832031 624.085938 291.898438 C 627.449219 284.027344 632.648438 276.691406 630.21875 265.453125 C 626.253906 247.105469 608.40625 247.601562 608.40625 227.769531 C 608.40625 222.425781 609.15625 217.8125 609.835938 213.707031 C 615.253906 207.371094 622.378906 202.933594 631.042969 205.785156 C 631.621094 203.316406 632.242188 200.855469 632.460938 198.316406 C 632.988281 192.21875 628.847656 181.488281 623.875 177.589844 C 621.195312 175.492188 617.476562 174.039062 614.242188 173.101562 C 604.476562 170.265625 595.328125 172.109375 586.21875 174.914062 C 580.957031 178.554688 577.269531 182.355469 574.730469 185.746094 C 568.039062 188.433594 564.777344 193.550781 564.777344 193.550781 C 563.40625 191.761719 561.542969 189.3125 559.828125 186.558594 C 561.054688 177.6875 565.175781 169.148438 570.019531 161.8125 " fill-opacity="1" fill-rule="nonzero"/><path fill="#6e3b32" d="M 693.8125 214.832031 C 693.003906 212.59375 695.171875 215.28125 695.472656 216.085938 C 696.210938 218.070312 696.707031 220.03125 697.027344 221.972656 C 697.675781 222.835938 698.390625 223.996094 698.480469 224.296875 C 698.546875 224.53125 698.578125 224.769531 698.640625 225.007812 C 698.921875 225.441406 699.144531 225.828125 699.1875 225.992188 C 699.703125 227.960938 699.992188 229.949219 700.105469 231.9375 C 701.613281 224.9375 701.066406 217.988281 696.476562 210.5 C 695.4375 208.808594 694.859375 205.390625 696.96875 208.566406 C 702.175781 216.414062 705.167969 225.496094 703.917969 235.019531 C 703.007812 241.980469 698.601562 247.207031 697.039062 253.828125 C 696.335938 256.808594 696.46875 259.6875 697.136719 262.464844 C 698.96875 266.691406 701.707031 270.640625 704.835938 274.671875 C 708.203125 279 710.863281 283.789062 713.492188 288.589844 C 714.144531 289.78125 714.929688 293.054688 712.960938 290.589844 C 707.773438 284.085938 701.804688 276.960938 697.800781 269.175781 C 697.339844 268.570312 696.890625 267.960938 696.46875 267.320312 C 694.363281 264.132812 692.738281 260.796875 691.902344 257.050781 C 688.726562 242.824219 698.859375 228.886719 693.8125 214.832031 " fill-opacity="1" fill-rule="nonzero"/><path fill="#6e3b32" d="M 710.792969 252.019531 C 710.625 250.800781 713.050781 254.261719 713.226562 254.882812 C 716.265625 265.859375 720.386719 275.359375 726.539062 284.976562 C 729.835938 290.132812 733.238281 295.316406 735.375 301.085938 C 737.734375 307.457031 738.59375 314.304688 736.328125 320.304688 C 736.386719 322.046875 736.257812 323.710938 735.871094 325.242188 C 735.820312 325.425781 735.707031 325.488281 735.523438 325.433594 C 735.160156 325.433594 734.800781 325.429688 734.4375 325.429688 C 734.234375 325.429688 733.988281 325.253906 733.742188 324.992188 C 733.5625 325.230469 733.394531 325.46875 733.207031 325.695312 C 733.207031 325.761719 733.210938 325.832031 733.210938 325.894531 C 733.207031 326.203125 733.058594 326.230469 732.84375 326.101562 C 732.550781 326.4375 732.261719 326.773438 731.941406 327.097656 C 731.558594 327.476562 729.09375 324.023438 729.761719 323.167969 C 729.960938 322.910156 730.136719 322.65625 730.320312 322.398438 C 730.285156 322.269531 730.257812 322.152344 730.25 322.058594 C 729.4375 304.980469 725.039062 290.78125 717.09375 275.6875 C 713.171875 268.230469 711.054688 261.035156 710.839844 252.5625 C 710.839844 252.519531 710.863281 252.519531 710.871094 252.488281 C 710.847656 252.332031 710.8125 252.175781 710.792969 252.019531 " fill-opacity="1" fill-rule="nonzero"/><path fill="#542d26" d="M 563.808594 212.679688 C 565.851562 211.855469 569.859375 213.261719 572.050781 213.984375 C 575.503906 215.125 578.503906 216.703125 580.691406 218.949219 C 582.46875 220.769531 583.640625 222.867188 584.441406 224.878906 C 584.839844 225.886719 585.136719 226.902344 585.359375 227.910156 C 585.527344 228.621094 585.644531 229.324219 585.726562 230.03125 C 585.746094 230.128906 585.75 230.210938 585.765625 230.289062 C 586.449219 231.183594 587.191406 233.101562 586.589844 232.886719 C 586.539062 232.867188 586.503906 232.839844 586.453125 232.816406 C 586.425781 232.875 586.382812 232.894531 586.3125 232.859375 C 581.929688 230.78125 577.878906 228.445312 573.304688 226.574219 C 569.941406 225.195312 564.617188 224.222656 562.207031 222.03125 C 561.140625 221.0625 560.472656 219.699219 560.453125 218.601562 C 560.429688 217.078125 562.050781 213.390625 563.808594 212.679688 " fill-opacity="1" fill-rule="nonzero"/><path fill="#292e47" d="M 565.570312 257.6875 C 565.570312 260.960938 567.789062 263.609375 570.527344 263.609375 C 573.265625 263.609375 575.484375 260.960938 575.484375 257.6875 C 575.484375 254.414062 573.265625 251.761719 570.527344 251.761719 C 567.789062 251.761719 565.570312 254.414062 565.570312 257.6875 " fill-opacity="1" fill-rule="nonzero"/><path fill="#c63d4c" d="M 577.964844 312.453125 C 577.964844 312.453125 587.132812 328.574219 581.308594 332.042969 C 575.484375 335.511719 569.90625 328.445312 568.292969 317.164062 C 566.6875 305.882812 573.003906 304.273438 577.964844 312.453125 " fill-opacity="1" fill-rule="nonzero"/><path fill="#f79185" d="M 570.527344 519.730469 C 570.527344 519.730469 475.585938 446.835938 472.117188 441.878906 C 468.648438 436.921875 447.824219 409.648438 443.117188 406.175781 C 438.40625 402.703125 421.796875 404.691406 406.675781 399.730469 C 391.554688 394.769531 386.101562 392.347656 385.359375 394.800781 C 384.617188 397.25 403.453125 411.628906 415.105469 413.121094 C 426.753906 414.605469 406.925781 416.589844 387.835938 418.574219 C 368.75 420.554688 331.074219 444.359375 334.792969 448.574219 C 338.507812 452.789062 373.460938 433.945312 384.863281 434.9375 C 389.574219 435.929688 342.722656 455.515625 341.980469 465.433594 C 342.722656 470.886719 372.71875 456.257812 387.339844 450.804688 C 396.761719 449.566406 351.644531 470.144531 354.375 476.839844 C 357.097656 483.53125 392.050781 460.472656 392.296875 465.683594 C 392.546875 470.886719 366.519531 484.527344 369.492188 489.234375 C 372.46875 493.949219 395.023438 481.796875 399.488281 480.308594 C 403.949219 478.820312 449.054688 474.359375 452.527344 475.847656 C 456.007812 477.335938 541.277344 575.519531 541.277344 575.519531 L 570.527344 519.730469 " fill-opacity="1" fill-rule="nonzero"/><path fill="#a8888b" d="M 782.464844 418.078125 C 781.457031 416.875 748.257812 384.355469 727.929688 398.242188 C 707.605469 412.125 641.667969 522.210938 605.476562 537.582031 C 600.023438 535.105469 575.21875 523.203125 568.039062 515.265625 C 545.488281 537.085938 537.0625 573.285156 537.0625 573.285156 C 537.0625 573.285156 571.765625 620.890625 593.082031 622.375 C 614.402344 623.867188 730.90625 544.03125 770.070312 496.425781 C 787.917969 471.136719 800.808594 439.898438 782.464844 418.078125 " fill-opacity="1" fill-rule="nonzero"/><path fill="#6d5458" d="M 550.828125 590.394531 C 551.40625 588.871094 552.023438 587.363281 552.671875 585.871094 C 547.570312 581.210938 542.410156 576.503906 537.425781 571.675781 C 537.582031 571.085938 537.792969 570.328125 538.039062 569.457031 C 543.394531 574.222656 548.46875 579.503906 553.21875 584.605469 C 554.167969 582.5 555.171875 580.417969 556.238281 578.363281 C 550.609375 573.710938 545.046875 568.867188 539.832031 563.707031 C 540.042969 563.070312 540.269531 562.410156 540.507812 561.726562 C 545.871094 566.929688 551.238281 572.121094 556.960938 576.988281 C 557.886719 575.242188 558.839844 573.507812 559.839844 571.789062 C 554.003906 566.769531 548.15625 561.75 542.351562 556.683594 C 542.597656 556.046875 542.851562 555.398438 543.113281 554.738281 C 549.070312 559.839844 554.898438 565.101562 560.648438 570.398438 C 561.824219 568.425781 563.027344 566.464844 564.273438 564.523438 C 557.925781 559.59375 551.5625 554.535156 545.421875 549.289062 C 545.769531 548.5 546.132812 547.703125 546.507812 546.898438 C 552.925781 552.09375 559.148438 557.613281 565.277344 562.972656 C 565.648438 562.414062 566 561.84375 566.375 561.28125 C 567.410156 559.726562 568.472656 558.175781 569.53125 556.625 C 563.222656 550.785156 556.53125 545.484375 549.890625 540.101562 C 550.335938 539.269531 550.792969 538.4375 551.261719 537.601562 C 558.082031 543.074219 564.441406 549.414062 570.386719 555.355469 C 571.988281 553.035156 573.601562 550.722656 575.25 548.433594 C 568.429688 542.871094 561.359375 537.683594 554.363281 532.390625 C 554.890625 531.546875 555.429688 530.710938 555.988281 529.878906 C 563.175781 535.089844 569.960938 541.132812 576.292969 546.980469 C 577.800781 544.902344 579.328125 542.835938 580.890625 540.796875 C 573.949219 535.265625 566.746094 530.058594 559.734375 524.628906 C 560.269531 523.921875 560.820312 523.222656 561.382812 522.53125 C 568.589844 527.71875 575.40625 533.722656 581.972656 539.433594 C 583.132812 537.941406 584.285156 536.449219 585.480469 534.988281 C 578.777344 529.398438 571.886719 523.828125 565.375 517.941406 C 566.003906 517.269531 566.648438 516.609375 567.300781 515.957031 C 573.691406 521.449219 579.820312 527.390625 585.976562 532.90625 C 586.132812 533.046875 586.328125 533.359375 586.527344 533.730469 C 587.628906 532.414062 588.765625 531.128906 589.898438 529.839844 C 591.039062 530.453125 592.167969 531.042969 593.269531 531.613281 C 590.003906 535.253906 586.871094 539.019531 583.867188 542.882812 C 583.878906 543.019531 583.839844 543.066406 583.753906 543.03125 C 578.335938 550.011719 573.28125 557.28125 568.390625 564.625 C 566.355469 567.679688 564.414062 570.765625 562.5625 573.894531 C 562.554688 573.964844 562.53125 574.003906 562.488281 574.003906 C 558.871094 580.125 555.679688 586.421875 553.132812 593.007812 C 552.347656 592.125 551.578125 591.253906 550.828125 590.394531 " fill-opacity="1" fill-rule="nonzero"/><path fill="#e7787c" d="M 393.75 420.453125 C 398.28125 421.304688 402.6875 422.75 407.277344 423.382812 C 407.886719 423.460938 408.777344 425.746094 408.363281 425.714844 C 404.777344 425.464844 401.179688 425.0625 397.589844 424.855469 C 395.535156 424.738281 393.6875 424.605469 391.914062 425.78125 C 390.628906 426.636719 389.992188 427.96875 388.628906 428.699219 C 387.753906 429.164062 386.078125 425.464844 386.277344 424.78125 C 387.292969 421.261719 390.234375 419.796875 393.75 420.453125 " fill-opacity="1" fill-rule="nonzero"/><path fill="#e7787c" d="M 392.976562 436.308594 C 394.617188 434.929688 396.523438 434.503906 398.609375 434.460938 C 399.351562 434.449219 400.957031 437.828125 400.40625 437.992188 C 398.679688 438.507812 396.882812 439.210938 395.464844 440.347656 C 394.757812 440.910156 394.136719 441.589844 393.695312 442.386719 C 393.375 442.964844 393.300781 443.988281 392.671875 444.265625 C 391.839844 444.640625 390.757812 441.695312 390.671875 441.183594 C 390.355469 439.296875 391.570312 437.492188 392.976562 436.308594 " fill-opacity="1" fill-rule="nonzero"/><path fill="#917579" d="M 602.660156 541.820312 C 602.65625 541.324219 602.878906 541.085938 603.332031 541.445312 C 616.089844 551.609375 614.394531 567.914062 621.222656 581.335938 C 622.476562 583.804688 620.75 583.167969 619.824219 581.371094 C 615.648438 573.316406 615.164062 564.492188 611.828125 556.210938 C 611.019531 552.980469 609.015625 550.457031 605.8125 548.648438 C 605.816406 550.046875 605.78125 551.4375 605.707031 552.832031 C 605.621094 554.808594 605.484375 556.777344 605.285156 558.746094 C 604.6875 564.636719 603.734375 570.691406 601.625 576.238281 C 601.359375 576.929688 598.59375 573.109375 598.828125 571.949219 C 600.851562 561.792969 602.769531 552.265625 602.660156 541.820312 " fill-opacity="1" fill-rule="nonzero"/><path fill="#917579" d="M 725.734375 397.777344 C 760.769531 395.164062 789.042969 425.683594 785.082031 460.28125 C 785.058594 460.5 782.765625 458.011719 782.859375 456.867188 C 785.566406 424.675781 759.953125 400.632812 728.613281 402.972656 C 726.976562 403.089844 725.332031 397.808594 725.734375 397.777344 " fill-opacity="1" fill-rule="nonzero"/><path fill="#917579" d="M 574.621094 449.476562 C 574.851562 448.625 576.625 451.472656 576.71875 451.683594 C 577.53125 453.511719 577.941406 455.453125 578.753906 457.277344 C 579.613281 459.210938 580.816406 460.933594 582.082031 462.617188 C 582.601562 463.308594 583.539062 464.582031 583.492188 465.503906 C 583.453125 466.191406 583.289062 466.414062 582.652344 465.742188 C 580.429688 463.402344 578.683594 460.652344 577.253906 457.761719 C 576.246094 455.71875 573.988281 451.8125 574.621094 449.476562 " fill-opacity="1" fill-rule="nonzero"/><path fill="#917579" d="M 712.777344 621.308594 C 725.097656 609.515625 737.84375 599.203125 748.332031 585.539062 C 759.136719 571.464844 767.878906 555.824219 774.265625 539.273438 C 774.421875 538.878906 776.523438 541.355469 776.195312 542.234375 C 764.753906 572.945312 743.695312 607.5625 714.542969 624.492188 C 713.980469 624.820312 712.230469 621.832031 712.777344 621.308594 " fill-opacity="1" fill-rule="nonzero"/><path fill="#e7787c" d="M 629.46875 407.308594 C 636.828125 405.117188 642.164062 405.589844 646 410.882812 C 651.039062 410.230469 653.449219 408.222656 657.394531 404.925781 C 661.925781 401.140625 665.359375 401.558594 671.394531 401.027344 C 682.027344 400.09375 693.421875 399.453125 702.804688 393.902344 C 703.363281 393.574219 705.226562 396.707031 704.605469 397.15625 C 695.726562 403.578125 684.691406 404.59375 674.070312 405.855469 C 669.457031 406.402344 664.808594 405.988281 661.179688 408.941406 C 656.40625 412.832031 654.890625 415.460938 648.179688 416.144531 C 647.097656 416.253906 646.058594 413.929688 645.722656 413.234375 C 643.605469 408.855469 635.40625 411.585938 632.324219 412.457031 C 630.976562 412.839844 628.71875 407.53125 629.46875 407.308594 " fill-opacity="1" fill-rule="nonzero"/><path fill="#d76267" d="M 548.652344 279.441406 L 554.230469 279.320312 C 555.105469 279.300781 556.515625 282.769531 555.835938 282.785156 L 550.257812 282.90625 C 549.382812 282.929688 547.972656 279.460938 548.652344 279.441406 " fill-opacity="1" fill-rule="nonzero"/></svg>