<svg xmlns="http://www.w3.org/2000/svg" xmlns:xlink="http://www.w3.org/1999/xlink" width="1920" zoomAndPan="magnify" viewBox="0 0 1440 809.999993" height="1080" preserveAspectRatio="xMidYMid meet" version="1.0"><path fill="#f25064" d="M 439.039062 726.9375 C 439.226562 729.171875 460.972656 815.558594 462.226562 863.796875 C 359.449219 907.648438 200.273438 846.253906 195.882812 839.363281 C 242.257812 742.261719 250.40625 720.746094 249.777344 704.25 C 249.152344 687.757812 439.039062 726.9375 439.039062 726.9375 " fill-opacity="1" fill-rule="nonzero"/><path fill="#704a46" d="M 431.027344 202.617188 C 431.027344 202.617188 442.796875 184.394531 418.042969 163.09375 C 393.285156 141.792969 304.925781 95.4375 268.894531 144.300781 C 199.015625 194.105469 200.429688 255.972656 192.90625 327.230469 C 185.386719 398.488281 168.464844 438.191406 183.507812 457.101562 C 198.546875 476.015625 384.714844 443.59375 386.105469 427.152344 C 387.492188 410.707031 373.828125 346.804688 380.894531 296.058594 C 387.964844 245.320312 431.027344 202.617188 431.027344 202.617188 " fill-opacity="1" fill-rule="nonzero"/><path fill="#4a6391" d="M 321.949219 361.996094 C 321.949219 361.996094 351.613281 367.320312 371.199219 384.078125 C 390.78125 400.839844 391.878906 414.308594 391.878906 414.308594 C 391.878906 414.308594 324.195312 386.898438 323.101562 385.492188 C 322.003906 384.078125 321.949219 361.996094 321.949219 361.996094 " fill-opacity="1" fill-rule="nonzero"/><path fill="#f89f7a" d="M 255.886719 373.351562 C 255.886719 373.351562 287.222656 313.289062 296.308594 275.699219 C 278.765625 256.28125 288.320312 219.789062 297.089844 218.847656 C 305.867188 217.910156 314.957031 223.234375 313.074219 239.210938 C 322.476562 235.449219 325.363281 230.128906 325.363281 230.128906 C 325.363281 230.128906 397.558594 209.453125 409.996094 184.082031 C 432.773438 191.914062 435.902344 205.066406 429.949219 238.585938 C 423.996094 272.097656 405.195312 284 407.703125 297.785156 C 410.210938 311.566406 413.34375 311.253906 413.027344 316.890625 C 412.714844 322.53125 388.753906 321.667969 388.753906 321.667969 C 388.753906 321.667969 354.589844 354.957031 348.480469 356.171875 C 342.371094 357.378906 333.914062 350.332031 328.507812 353.382812 C 323.101562 356.4375 325.214844 371.46875 327.332031 375.933594 C 329.445312 380.402344 354.8125 382.980469 366.453125 398.019531 C 378.089844 413.054688 384.871094 463.796875 384.871094 463.796875 C 384.871094 463.796875 356.238281 477.425781 310.644531 462.386719 C 265.054688 447.351562 255.886719 373.351562 255.886719 373.351562 " fill-opacity="1" fill-rule="nonzero"/><path fill="#d36c6d" d="M 358.976562 387.054688 L 330.570312 378.269531 C 330.570312 378.269531 367.125 447.511719 378.40625 433.570312 C 389.683594 419.632812 358.976562 387.054688 358.976562 387.054688 " fill-opacity="1" fill-rule="nonzero"/><path fill="#d36c6d" d="M 286.515625 306.332031 C 286.515625 306.332031 312.878906 343.398438 338.609375 354.203125 C 330.375 352.730469 324.761719 351.253906 325.28125 367 C 291.613281 371.710938 280.632812 320.539062 280.632812 320.539062 L 286.515625 306.332031 " fill-opacity="1" fill-rule="nonzero"/><path fill="#d36c6d" d="M 338.613281 354.203125 C 338.613281 354.203125 336.789062 353.425781 335.664062 352.851562 C 334.539062 352.28125 331.09375 343.441406 331.488281 341.242188 C 331.875 339.054688 340.414062 339.523438 340.414062 339.523438 C 340.414062 339.523438 332.710938 332.242188 333.625 330.042969 C 334.539062 327.851562 346.050781 327.695312 346.050781 327.695312 C 346.050781 327.695312 342.292969 323.941406 343.074219 321.824219 C 343.859375 319.710938 398.34375 313.800781 394.640625 321.6875 C 380.207031 334.429688 338.613281 354.203125 338.613281 354.203125 " fill-opacity="1" fill-rule="nonzero"/><path fill="#413f53" d="M 375.457031 446.886719 C 375.457031 446.886719 362.203125 468.976562 318.847656 452.382812 C 293.589844 509.472656 358.347656 714.070312 362.578125 722.609375 C 366.808594 731.144531 437.308594 735.890625 442.480469 726.941406 C 447.648438 717.988281 434.488281 647.351562 435.429688 636.859375 C 436.371094 626.367188 443.421875 603.195312 445.773438 599.511719 C 448.121094 595.828125 375.457031 446.886719 375.457031 446.886719 " fill-opacity="1" fill-rule="nonzero"/><path fill="#4a6391" d="M 399.558594 418.375 C 399.558594 418.375 371.890625 403.339844 366.453125 403.339844 C 361.015625 403.339844 360.703125 423.074219 359.761719 429.027344 C 358.820312 434.976562 410 524.25 410 524.25 L 399.558594 418.375 " fill-opacity="1" fill-rule="nonzero"/><path fill="#6180bb" d="M 166.46875 643.460938 C 166.46875 643.460938 202.148438 605.066406 205.28125 603.8125 C 208.417969 602.558594 227.21875 646.625 233.796875 648.867188 C 240.378906 651.109375 219.382812 700.289062 221.890625 708.433594 C 224.398438 716.578125 407.078125 774.523438 409.582031 771.082031 C 412.089844 767.632812 404.414062 571.859375 351.304688 527.695312 C 332.503906 453.929688 319.339844 419.046875 323.105469 410.648438 C 326.859375 402.246094 246.488281 364.121094 239.910156 356.167969 C 233.796875 357.613281 217.347656 375.519531 217.347656 378.550781 C 217.347656 381.574219 226.75 391.910156 226.75 391.910156 C 226.75 391.910156 210.300781 388.621094 194.316406 401.777344 C 178.335938 414.9375 145.4375 491.046875 110.1875 537.09375 C 74.933594 583.136719 57.074219 612.742188 53.785156 619.785156 C 50.492188 626.835938 166.46875 643.460938 166.46875 643.460938 " fill-opacity="1" fill-rule="nonzero"/><path fill="#4a6391" d="M 205.28125 603.8125 C 205.28125 603.8125 299.128906 500.683594 305.707031 498.566406 C 312.289062 496.453125 289.960938 521.828125 273.75 550.253906 C 257.535156 578.675781 325.214844 540.855469 326.625 557.0625 C 328.03125 573.269531 281.269531 588.578125 269.988281 605.472656 C 258.707031 622.375 320.75 647.976562 319.808594 653.851562 C 318.871094 659.726562 338.84375 689.5625 340.722656 704.125 C 342.605469 718.691406 328.738281 748.300781 328.738281 748.300781 C 328.738281 748.300781 295.839844 715.402344 292.3125 707.648438 C 269.988281 713.054688 223.691406 702.011719 223.691406 701.308594 C 223.691406 700.601562 232.152344 652.210938 230.507812 646.804688 C 228.863281 641.398438 205.28125 603.8125 205.28125 603.8125 " fill-opacity="1" fill-rule="nonzero"/><path fill="#f89f7a" d="M 404.816406 401.308594 C 404.664062 400.820312 415.550781 350.878906 410.269531 332.308594 C 404.988281 313.738281 349.132812 320.890625 347.601562 322.765625 C 346.070312 324.640625 352.03125 329.410156 352.03125 329.410156 C 352.03125 329.410156 338.742188 330.09375 337.890625 331.625 C 337.039062 333.160156 344.535156 340.828125 344.535156 340.828125 C 344.535156 340.828125 333.808594 341.503906 333.636719 343.722656 C 333.464844 345.9375 340.277344 358.203125 340.277344 358.203125 C 340.277344 358.203125 333.96875 354.796875 333.636719 357.011719 C 333.296875 359.222656 342.152344 388.699219 347.429688 396.367188 C 352.707031 404.035156 380.46875 426.011719 380.46875 426.011719 C 380.46875 426.011719 410.863281 585.808594 434.023438 608.984375 C 457.183594 632.152344 503.953125 658.789062 511.105469 645.160156 C 518.257812 631.53125 517.480469 579.113281 508.285156 561.054688 C 499.089844 543 426.617188 467.582031 404.816406 401.308594 " fill-opacity="1" fill-rule="nonzero"/><path fill="#d36c6d" d="M 359.101562 382.441406 C 361.039062 383.550781 362.660156 381.085938 361.367188 379.503906 C 356.273438 373.289062 349.65625 368.21875 344.210938 362.253906 C 342.429688 360.308594 340.75 358.25 339.085938 356.167969 C 339.753906 357.414062 340.207031 358.234375 340.207031 358.234375 C 340.207031 358.234375 334.28125 355.035156 333.625 356.878906 C 335.699219 359.582031 337.921875 362.175781 340.082031 364.671875 C 345.578125 371.019531 351.769531 378.234375 359.101562 382.441406 " fill-opacity="1" fill-rule="nonzero"/><path fill="#d36c6d" d="M 374.648438 354.609375 C 367.164062 350.722656 359.164062 347.859375 351.550781 344.210938 C 348.980469 342.980469 346.445312 341.609375 343.898438 340.265625 C 344.238281 340.628906 344.464844 340.855469 344.464844 340.855469 C 344.464844 340.855469 340.796875 341.09375 337.71875 341.730469 C 348.636719 348.589844 361.738281 354.285156 373.378906 357.613281 C 375.140625 358.121094 376.328125 355.484375 374.648438 354.609375 " fill-opacity="1" fill-rule="nonzero"/><path fill="#d36c6d" d="M 387.71875 339.679688 C 376.855469 331.703125 362.835938 330.039062 349.554688 327.230469 C 350.746094 328.46875 351.957031 329.441406 351.957031 329.441406 C 351.957031 329.441406 347.910156 329.652344 344.148438 330.09375 C 357.703125 335.121094 372.808594 335.402344 385.316406 343.792969 C 387.898438 345.519531 390.140625 341.457031 387.71875 339.679688 " fill-opacity="1" fill-rule="nonzero"/><path fill="#6180bb" d="M 21.796875 675.976562 C 21.796875 675.976562 18.847656 666.460938 28.246094 651.113281 C 37.644531 635.761719 25.113281 624.175781 28.246094 617.597656 C 31.378906 611.019531 167.054688 581.222656 178.023438 649.527344 C 146.378906 664.265625 21.796875 675.976562 21.796875 675.976562 " fill-opacity="1" fill-rule="nonzero"/><path fill="#f89f7a" d="M 144.183594 644.535156 C 146.753906 644.308594 312.136719 636.390625 323.101562 640.460938 C 367.59375 631.0625 382.792969 641.246094 389.214844 657.21875 C 395.636719 673.191406 398.617188 719.707031 402.53125 727.542969 C 392.035156 730.832031 381.539062 719.398438 381.539062 719.398438 C 381.539062 719.398438 379.1875 799.898438 373.238281 808.355469 C 368.222656 807.726562 365.089844 791.125 365.089844 791.125 C 365.089844 791.125 365.871094 801.621094 362.820312 801.855469 C 359.761719 802.089844 353.648438 789.167969 353.648438 789.167969 C 353.648438 789.167969 353.824219 795.734375 351.070312 793.632812 C 324.277344 773.191406 318.714844 736.550781 309.3125 681.769531 C 236.617188 706.554688 94.363281 765.597656 12.894531 722.605469 C 9.757812 702.167969 24.171875 670.21875 24.171875 670.21875 C 24.171875 670.21875 72.425781 650.800781 144.183594 644.535156 " fill-opacity="1" fill-rule="nonzero"/><path fill="#4a6391" d="M 181.890625 623.460938 C 163.035156 611.476562 141.921875 603.738281 119.730469 600.949219 C 100.125 598.488281 72.425781 598.074219 54.980469 608.898438 C 53.683594 609.703125 54.128906 611.996094 55.796875 611.90625 C 65.863281 611.382812 75.773438 608.210938 85.902344 607.390625 C 96.144531 606.5625 106.460938 606.769531 116.667969 607.953125 C 138.578125 610.484375 159.527344 618.117188 178.113281 629.929688 C 182.191406 632.519531 185.953125 626.042969 181.890625 623.460938 " fill-opacity="1" fill-rule="nonzero"/><path fill="#4a6391" d="M 325.257812 453.546875 C 322.890625 444.574219 320.167969 435.664062 317.113281 426.898438 C 316.164062 424.1875 313.070312 423.34375 310.902344 425.261719 C 306.914062 428.796875 302.863281 432.210938 298.597656 435.410156 C 296.222656 437.183594 290.425781 442.914062 287.476562 443.121094 C 283.8125 443.375 278.507812 437.945312 275.492188 435.78125 C 271.433594 432.867188 267.453125 429.875 263.53125 426.777344 C 249.449219 415.660156 236.066406 403.234375 223.636719 390.300781 C 222.675781 389.296875 221.199219 390.792969 222.125 391.8125 C 238.421875 409.890625 256.265625 426.707031 273.917969 443.457031 C 278.433594 447.746094 283.234375 452.8125 289.777344 450.355469 C 297.507812 447.449219 305.480469 440.242188 312.171875 434.136719 C 315.03125 441.007812 317.507812 447.90625 319.703125 455.078125 C 320.785156 458.613281 326.203125 457.148438 325.257812 453.546875 " fill-opacity="1" fill-rule="nonzero"/><path fill="#d36c6d" d="M 361.019531 763.824219 C 358.949219 750.019531 357.222656 736.105469 356.496094 722.160156 C 356.316406 718.714844 350.800781 718.847656 351.207031 722.160156 C 352.820312 735.28125 354.21875 748.417969 356.234375 761.492188 C 358.128906 773.792969 358.953125 788.492188 364.570312 799.730469 C 364.984375 800.558594 366.171875 800.101562 366.214844 799.285156 C 366.765625 787.652344 362.742188 775.335938 361.019531 763.824219 " fill-opacity="1" fill-rule="nonzero"/><path fill="#d36c6d" d="M 355.222656 791.453125 C 349.5 770.238281 343.207031 749.125 336.589844 728.171875 C 335.910156 726.019531 332.5625 726.914062 333.191406 729.109375 C 339.238281 750.238281 345.648438 771.328125 352.585938 792.183594 C 353.136719 793.835938 355.683594 793.167969 355.222656 791.453125 " fill-opacity="1" fill-rule="nonzero"/><path fill="#d36c6d" d="M 344.855469 786.585938 C 341.882812 777.625 337.660156 769.105469 334.582031 760.15625 C 331.839844 752.1875 329.957031 743.832031 326.527344 736.128906 C 326.160156 735.308594 324.703125 735.703125 324.804688 736.59375 C 325.773438 745.519531 329.175781 754.152344 332.324219 762.511719 C 335.46875 770.867188 338.59375 779.628906 343.269531 787.253906 C 343.765625 788.066406 345.175781 787.550781 344.855469 786.585938 " fill-opacity="1" fill-rule="nonzero"/><path fill="#d36c6d" d="M 304.457031 256.203125 C 304.457031 256.203125 297.644531 250.644531 298.660156 246.960938 C 299.675781 243.285156 303.515625 245.394531 305.394531 242.105469 C 307.277344 238.820312 299.601562 223.863281 294.898438 230.046875 C 290.199219 236.234375 288.867188 249.625 293.960938 257.375 C 299.050781 265.132812 305.476562 258.707031 304.457031 256.203125 " fill-opacity="1" fill-rule="nonzero"/><path fill="#704a46" d="M 365.242188 224.332031 C 365.9375 224.859375 399.082031 247.828125 404.644531 252.289062 C 410.207031 256.753906 409.816406 260.042969 407.070312 260.199219 C 404.332031 260.359375 391.25 259.101562 383.183594 254.71875 C 375.113281 250.332031 367.355469 235.140625 365.242188 230.835938 C 363.128906 226.523438 361.925781 221.835938 365.242188 224.332031 " fill-opacity="1" fill-rule="nonzero"/><path fill="#2e2f31" d="M 399.875 273.902344 C 397.410156 269.699219 392.011719 269.875 387.773438 268.351562 C 380.859375 265.855469 373.230469 262.085938 367.808594 257.03125 C 366.605469 255.90625 364.863281 257.644531 366.003906 258.835938 C 369.511719 262.503906 374.007812 264.957031 378.441406 267.375 C 377.382812 269.0625 377.566406 271.445312 377.6875 273.367188 C 377.804688 275.171875 377.851562 277.566406 379.632812 278.59375 C 381.359375 279.585938 383.246094 278.691406 383.847656 276.878906 C 384.421875 275.144531 385.0625 272.636719 384.777344 270.726562 C 385.140625 270.902344 385.496094 271.09375 385.863281 271.261719 C 389.535156 272.910156 394.136719 273.28125 397.335938 275.859375 C 398.6875 276.949219 400.863281 275.597656 399.875 273.902344 " fill-opacity="1" fill-rule="nonzero"/><path fill="#533734" d="M 356.667969 141.191406 C 332.207031 135.058594 303.734375 131.09375 279.441406 139.953125 C 277.863281 140.527344 278.46875 142.914062 280.144531 142.503906 C 303.707031 136.765625 325.082031 138.832031 348.316406 145.054688 C 358.398438 147.757812 368.519531 150.652344 378.4375 153.910156 C 385 156.070312 391.394531 158.496094 396.257812 163.613281 C 400.132812 167.691406 401.792969 172.914062 404.183594 177.855469 C 405.140625 179.832031 408.074219 178.757812 408.125 176.789062 C 408.746094 151.816406 374.777344 145.730469 356.667969 141.191406 " fill-opacity="1" fill-rule="nonzero"/><path fill="#533734" d="M 327.363281 149.15625 C 308.769531 151.226562 294.285156 168.789062 283.359375 182.382812 C 270.539062 198.332031 260.902344 216.058594 254.1875 235.378906 C 246.722656 256.835938 244.46875 279.1875 239.789062 301.285156 C 234.558594 326.003906 226.699219 350.40625 216.511719 373.539062 C 215.980469 374.746094 217.753906 375.816406 218.316406 374.589844 C 227.101562 355.496094 234.394531 336.023438 239.546875 315.605469 C 244.875 294.480469 246.796875 272.683594 252.414062 251.644531 C 263.128906 211.554688 289.5625 170.460938 328.542969 153.511719 C 330.625 152.605469 329.617188 148.910156 327.363281 149.15625 " fill-opacity="1" fill-rule="nonzero"/><path fill="#533734" d="M 355.558594 157.707031 C 339.382812 160.476562 323.929688 169.84375 311.480469 180.167969 C 310.367188 181.089844 311.878906 183.09375 313.046875 182.195312 C 326.421875 171.914062 340.652344 166.207031 356.285156 160.339844 C 357.9375 159.71875 357.292969 157.410156 355.558594 157.707031 " fill-opacity="1" fill-rule="nonzero"/><path fill="#533734" d="M 384.628906 178.683594 C 360.785156 183.996094 337.910156 199.144531 318.867188 213.855469 C 317.585938 214.84375 319.28125 217.078125 320.609375 216.113281 C 330.636719 208.863281 341.121094 202.386719 352.097656 196.679688 C 363.082031 190.972656 374.765625 186.988281 385.863281 181.609375 C 387.558594 180.785156 386.328125 178.304688 384.628906 178.683594 " fill-opacity="1" fill-rule="nonzero"/><path fill="#533734" d="M 269.363281 153.597656 C 245.339844 175.210938 228.128906 210.222656 224.070312 242.03125 C 221.65625 260.914062 221.222656 279.445312 217.078125 298.152344 C 212.578125 318.46875 207.660156 338.746094 200.507812 358.316406 C 200.117188 359.382812 201.757812 359.78125 202.179688 358.78125 C 216.523438 324.265625 222.847656 287.769531 226.089844 250.8125 C 227.722656 232.21875 233.636719 214.371094 242.402344 197.9375 C 250.652344 182.46875 261.878906 169.769531 271.992188 155.628906 C 273.144531 154.011719 270.707031 152.390625 269.363281 153.597656 " fill-opacity="1" fill-rule="nonzero"/><path fill="#533734" d="M 278.453125 166.386719 C 266.242188 176.933594 256.964844 191.726562 249.152344 205.683594 C 248.488281 206.875 250.300781 207.933594 250.980469 206.75 C 259.171875 192.414062 269.65625 180.324219 279.492188 167.1875 C 279.96875 166.550781 278.984375 165.925781 278.453125 166.386719 " fill-opacity="1" fill-rule="nonzero"/><path fill="#533734" d="M 273.152344 263.046875 C 258.953125 290.71875 250.984375 322.59375 245.726562 353.078125 C 245.515625 354.285156 247.355469 354.820312 247.589844 353.589844 C 253.671875 322.40625 264.285156 293.585938 275.058594 263.851562 C 275.460938 262.742188 273.6875 262 273.152344 263.046875 " fill-opacity="1" fill-rule="nonzero"/><path fill="#533734" d="M 218.019531 220.445312 C 206.324219 242.460938 203.710938 269.261719 206.621094 293.699219 C 206.761719 294.878906 208.625 294.914062 208.5 293.699219 C 205.824219 268.109375 211.042969 245.058594 219.734375 221.164062 C 220.101562 220.164062 218.511719 219.507812 218.019531 220.445312 " fill-opacity="1" fill-rule="nonzero"/></svg>